Pontano Sans-400.ufo
<glyph name="exclam" format="1">
  <advance width="428"/>
  <unicode hex="0021"/>
  <outline>
    <contour>
      <point x="136" y="0" type="line"/>
      <point x="309" y="0" type="line"/>
      <point x="309" y="193" type="line"/>
      <point x="136" y="193" type="line"/>
    </contour>
    <contour>
      <point x="187" y="335" type="line"/>
      <point x="257" y="335" type="line"/>
      <point x="325" y="1464" type="line"/>
      <point x="116" y="1464" type="line"/>
    </contour>
  </outline>
</glyph>
<glyph name="numbersign" format="1">
  <advance width="1221"/>
  <unicode hex="0023"/>
  <outline>
    <contour>
      <point x="137" y="0" type="line"/>
      <point x="296" y="1" type="line"/>
      <point x="407" y="541" type="line"/>
      <point x="697" y="541" type="line"/>
      <point x="588" y="0" type="line"/>
      <point x="748" y="1" type="line"/>
      <point x="859" y="541" type="line"/>
      <point x="1075" y="541" type="line"/>
      <point x="1109" y="658" type="line"/>
      <point x="883" y="658" type="line"/>
      <point x="931" y="891" type="line"/>
      <point x="1144" y="891" type="line"/>
      <point x="1177" y="1009" type="line"/>
      <point x="955" y="1009" type="line"/>
      <point x="1049" y="1464" type="line"/>
      <point x="883" y="1463" type="line"/>
      <point x="791" y="1009" type="line"/>
      <point x="504" y="1009" type="line"/>
      <point x="598" y="1464" type="line"/>
      <point x="433" y="1463" type="line"/>
      <point x="341" y="1009" type="line"/>
      <point x="151" y="1009" type="line"/>
      <point x="118" y="891" type="line"/>
      <point x="317" y="891" type="line"/>
      <point x="269" y="658" type="line"/>
      <point x="83" y="658" type="line"/>
      <point x="49" y="541" type="line"/>
      <point x="246" y="541" type="line"/>
    </contour>
    <contour>
      <point x="431" y="658" type="line"/>
      <point x="480" y="891" type="line"/>
      <point x="767" y="891" type="line"/>
      <point x="721" y="658" type="line"/>
    </contour>
  </outline>
</glyph>
<glyph name="dollar" format="1">
  <advance width="1216"/>
  <unicode hex="0024"/>
  <outline>
    <contour>
      <point x="593" y="-204" type="line"/>
      <point x="699" y="-204" type="line"/>
      <point x="699" y="1672" type="line"/>
      <point x="593" y="1672" type="line"/>
    </contour>
    <component base="S"/>
  </outline>
</glyph>
<glyph name="percent" format="1">
  <advance width="1677"/>
  <unicode hex="0025"/>
  <outline>
    <contour>
      <point x="357" y="883" type="curve"/>
      <point x="237" y="883"/>
      <point x="178" y="991"/>
      <point x="178" y="1120" type="curve"/>
      <point x="178" y="1246"/>
      <point x="239" y="1356"/>
      <point x="357" y="1356" type="curve"/>
      <point x="475" y="1356"/>
      <point x="536" y="1249"/>
      <point x="536" y="1120" type="curve"/>
      <point x="536" y="991"/>
      <point x="475" y="883"/>
    </contour>
    <contour>
      <point x="357" y="772" type="curve"/>
      <point x="559" y="772"/>
      <point x="666" y="945"/>
      <point x="666" y="1119" type="curve"/>
      <point x="666" y="1291"/>
      <point x="559" y="1466"/>
      <point x="357" y="1466" type="curve"/>
      <point x="154" y="1466"/>
      <point x="46" y="1291"/>
      <point x="46" y="1118" type="curve"/>
      <point x="46" y="945"/>
      <point x="153" y="772"/>
    </contour>
    <contour>
      <point x="273" y="-21" type="line"/>
      <point x="1508" y="1408" type="line"/>
      <point x="1418" y="1489" type="line"/>
      <point x="182" y="60" type="line"/>
    </contour>
    <contour>
      <point x="1297" y="102" type="curve"/>
      <point x="1178" y="102"/>
      <point x="1118" y="210"/>
      <point x="1118" y="339" type="curve"/>
      <point x="1118" y="465"/>
      <point x="1180" y="575"/>
      <point x="1297" y="575" type="curve"/>
      <point x="1415" y="575"/>
      <point x="1476" y="468"/>
      <point x="1476" y="338" type="curve"/>
      <point x="1476" y="210"/>
      <point x="1415" y="102"/>
    </contour>
    <contour>
      <point x="1297" y="-10" type="curve"/>
      <point x="1500" y="-10"/>
      <point x="1607" y="164"/>
      <point x="1607" y="338" type="curve"/>
      <point x="1607" y="510"/>
      <point x="1500" y="685"/>
      <point x="1297" y="685" type="curve"/>
      <point x="1094" y="685"/>
      <point x="986" y="510"/>
      <point x="986" y="337" type="curve"/>
      <point x="986" y="164"/>
      <point x="1094" y="-10"/>
    </contour>
  </outline>
</glyph>
<glyph name="ampersand" format="1">
  <advance width="1430"/>
  <unicode hex="0026"/>
  <outline>
    <contour>
      <point x="1282" y="-28" type="line"/>
      <point x="1388" y="71" type="line"/>
      <point x="566" y="992" type="line" smooth="yes"/>
      <point x="501" y="1065"/>
      <point x="478" y="1141"/>
      <point x="483" y="1209" type="curve" smooth="yes"/>
      <point x="489" y="1293"/>
      <point x="573" y="1351"/>
      <point x="678" y="1351" type="curve" smooth="yes"/>
      <point x="778" y="1351"/>
      <point x="859" y="1293"/>
      <point x="862" y="1205" type="curve" smooth="yes"/>
      <point x="864" y="1127"/>
      <point x="819" y="1016"/>
      <point x="539" y="905" type="curve" smooth="yes"/>
      <point x="224" y="780"/>
      <point x="100" y="633"/>
      <point x="98" y="413" type="curve" smooth="yes"/>
      <point x="96" y="171"/>
      <point x="292" y="-25"/>
      <point x="582" y="-25" type="curve" smooth="yes"/>
      <point x="881" y="-25"/>
      <point x="1243" y="143"/>
      <point x="1319" y="780" type="curve"/>
      <point x="1173" y="802" type="line"/>
      <point x="1120" y="359"/>
      <point x="906" y="116"/>
      <point x="608" y="116" type="curve" smooth="yes"/>
      <point x="371" y="116"/>
      <point x="275" y="260"/>
      <point x="273" y="417" type="curve" smooth="yes"/>
      <point x="271" y="558"/>
      <point x="339" y="672"/>
      <point x="625" y="808" type="curve" smooth="yes"/>
      <point x="869" y="924"/>
      <point x="1015" y="1025"/>
      <point x="1015" y="1211" type="curve" smooth="yes"/>
      <point x="1015" y="1393"/>
      <point x="861" y="1491"/>
      <point x="673" y="1491" type="curve" smooth="yes"/>
      <point x="493" y="1491"/>
      <point x="329" y="1392"/>
      <point x="321" y="1210" type="curve" smooth="yes"/>
      <point x="317" y="1113"/>
      <point x="346" y="1029"/>
      <point x="419" y="946" type="curve" smooth="yes"/>
    </contour>
  </outline>
</glyph>
<glyph name="quotesingle" format="1">
  <advance width="280"/>
  <unicode hex="0027"/>
  <outline>
    <contour>
      <point x="123" y="1000" type="line"/>
      <point x="181" y="1000" type="line"/>
      <point x="230" y="1464" type="line"/>
      <point x="73" y="1464" type="line"/>
    </contour>
  </outline>
</glyph>
<glyph name="parenleft" format="1">
  <advance width="602"/>
  <unicode hex="0028"/>
  <outline>
    <contour>
      <point x="523" y="-181" type="curve"/>
      <point x="557" y="-79" type="line"/>
      <point x="304" y="-4"/>
      <point x="199" y="289"/>
      <point x="199" y="703" type="curve"/>
      <point x="199" y="1117"/>
      <point x="304" y="1410"/>
      <point x="557" y="1485" type="curve"/>
      <point x="523" y="1587" type="line"/>
      <point x="232" y="1518"/>
      <point x="18" y="1242"/>
      <point x="18" y="703" type="curve"/>
      <point x="18" y="164"/>
      <point x="232" y="-112"/>
    </contour>
  </outline>
</glyph>
<glyph name="hyphen" format="1">
  <advance width="724"/>
  <unicode hex="002D"/>
  <outline>
    <contour>
      <point x="100" y="384" type="line"/>
      <point x="600" y="384" type="line"/>
      <point x="600" y="517" type="line"/>
      <point x="100" y="517" type="line"/>
    </contour>
  </outline>
</glyph>
<glyph name="zero" format="1">
  <advance width="1246"/>
  <unicode hex="0030"/>
  <outline>
    <contour>
      <point x="623" y="117" type="curve"/>
      <point x="390" y="117"/>
      <point x="283" y="317"/>
      <point x="283" y="724" type="curve"/>
      <point x="283" y="1131"/>
      <point x="390" y="1348"/>
      <point x="623" y="1348" type="curve"/>
      <point x="856" y="1348"/>
      <point x="963" y="1131"/>
      <point x="963" y="724" type="curve"/>
      <point x="963" y="317"/>
      <point x="856" y="117"/>
    </contour>
    <contour>
      <point x="623" y="-24" type="curve"/>
      <point x="979" y="-24"/>
      <point x="1149" y="263"/>
      <point x="1149" y="724" type="curve"/>
      <point x="1149" y="1185"/>
      <point x="979" y="1489"/>
      <point x="623" y="1489" type="curve"/>
      <point x="267" y="1489"/>
      <point x="97" y="1185"/>
      <point x="97" y="724" type="curve"/>
      <point x="97" y="263"/>
      <point x="267" y="-24"/>
    </contour>
  </outline>
</glyph>
<glyph name="three" format="1">
  <advance width="1154"/>
  <unicode hex="0033"/>
  <outline>
    <contour>
      <point x="572" y="-25" type="curve" smooth="yes"/>
      <point x="875" y="-24"/>
      <point x="1030" y="192"/>
      <point x="1033" y="401" type="curve" smooth="yes"/>
      <point x="1034" y="579"/>
      <point x="951" y="761"/>
      <point x="721" y="817" type="curve"/>
      <point x="898" y="871"/>
      <point x="962" y="1014"/>
      <point x="962" y="1154" type="curve" smooth="yes"/>
      <point x="962" y="1352"/>
      <point x="810" y="1490"/>
      <point x="561" y="1490" type="curve" smooth="yes"/>
      <point x="391" y="1490"/>
      <point x="249" y="1412"/>
      <point x="149" y="1256" type="curve"/>
      <point x="276" y="1180" type="line"/>
      <point x="363" y="1312"/>
      <point x="460" y="1351"/>
      <point x="568" y="1351" type="curve" smooth="yes"/>
      <point x="716" y="1351"/>
      <point x="791" y="1250"/>
      <point x="791" y="1140" type="curve" smooth="yes"/>
      <point x="791" y="1006"/>
      <point x="736" y="876"/>
      <point x="462" y="876" type="curve"/>
      <point x="462" y="741" type="line"/>
      <point x="705" y="741"/>
      <point x="859" y="657"/>
      <point x="854" y="396" type="curve" smooth="yes"/>
      <point x="851" y="249"/>
      <point x="761" y="114"/>
      <point x="558" y="117" type="curve" smooth="yes"/>
      <point x="405" y="119"/>
      <point x="316" y="208"/>
      <point x="264" y="366" type="curve"/>
      <point x="115" y="316" type="line"/>
      <point x="176" y="68"/>
      <point x="365" y="-25"/>
    </contour>
  </outline>
</glyph>
<glyph name="five" format="1">
  <advance width="1196"/>
  <unicode hex="0035"/>
  <outline>
    <contour>
      <point x="610" y="-24" type="curve" smooth="yes"/>
      <point x="909" y="-24"/>
      <point x="1101" y="174"/>
      <point x="1101" y="461" type="curve" smooth="yes"/>
      <point x="1101" y="709"/>
      <point x="955" y="928"/>
      <point x="630" y="928" type="curve" smooth="yes"/>
      <point x="550" y="928"/>
      <point x="427" y="905"/>
      <point x="333" y="837" type="curve"/>
      <point x="382" y="835" type="line"/>
      <point x="452" y="1312" type="line"/>
      <point x="987" y="1312" type="line"/>
      <point x="987" y="1464" type="line"/>
      <point x="296" y="1464" type="line"/>
      <point x="200" y="744" type="line"/>
      <point x="310" y="674" type="line"/>
      <point x="407" y="751"/>
      <point x="512" y="785"/>
      <point x="622" y="785" type="curve" smooth="yes"/>
      <point x="820" y="785"/>
      <point x="924" y="629"/>
      <point x="924" y="453" type="curve" smooth="yes"/>
      <point x="924" y="251"/>
      <point x="790" y="115"/>
      <point x="601" y="115" type="curve" smooth="yes"/>
      <point x="460" y="115"/>
      <point x="331" y="207"/>
      <point x="258" y="368" type="curve"/>
      <point x="110" y="309" type="line"/>
      <point x="202" y="72"/>
      <point x="385" y="-24"/>
    </contour>
  </outline>
</glyph>
<glyph name="six" format="1">
  <advance width="1220"/>
  <unicode hex="0036"/>
  <outline>
    <contour>
      <point x="637" y="-25" type="curve" smooth="yes"/>
      <point x="938" y="-25"/>
      <point x="1103" y="227"/>
      <point x="1103" y="481" type="curve" smooth="yes"/>
      <point x="1103" y="786"/>
      <point x="908" y="953"/>
      <point x="648" y="947" type="curve" smooth="yes"/>
      <point x="535" y="944"/>
      <point x="414" y="908"/>
      <point x="314" y="832" type="curve"/>
      <point x="327" y="1187"/>
      <point x="463" y="1347"/>
      <point x="660" y="1350" type="curve" smooth="yes"/>
      <point x="748" y="1351"/>
      <point x="846" y="1323"/>
      <point x="940" y="1263" type="curve"/>
      <point x="988" y="1396" type="line"/>
      <point x="884" y="1460"/>
      <point x="750" y="1490"/>
      <point x="652" y="1490" type="curve" smooth="yes"/>
      <point x="338" y="1490"/>
      <point x="122" y="1199"/>
      <point x="122" y="698" type="curve" smooth="yes"/>
      <point x="122" y="251"/>
      <point x="297" y="-25"/>
    </contour>
    <contour>
      <point x="637" y="117" type="curve" smooth="yes"/>
      <point x="382" y="117"/>
      <point x="314" y="379"/>
      <point x="314" y="651" type="curve" smooth="yes"/>
      <point x="314" y="689" type="line"/>
      <point x="413" y="766"/>
      <point x="519" y="810"/>
      <point x="628" y="812" type="curve" smooth="yes"/>
      <point x="830" y="817"/>
      <point x="922" y="714"/>
      <point x="922" y="477" type="curve" smooth="yes"/>
      <point x="922" y="247"/>
      <point x="811" y="117"/>
    </contour>
  </outline>
</glyph>
<glyph name="seven" format="1">
  <advance width="1246"/>
  <unicode hex="0037"/>
  <outline>
    <contour>
      <point x="539" y="-1" type="line"/>
      <point x="1073" y="1329" type="line"/>
      <point x="1073" y="1464" type="line"/>
      <point x="199" y="1464" type="line"/>
      <point x="212" y="1329" type="line"/>
      <point x="889" y="1329" type="line"/>
      <point x="348" y="1" type="line"/>
    </contour>
  </outline>
</glyph>
<glyph name="eight" format="1">
  <advance width="1194"/>
  <unicode hex="0038"/>
  <outline>
    <contour>
      <point x="585" y="-25" type="curve" smooth="yes"/>
      <point x="901" y="-25"/>
      <point x="1078" y="160"/>
      <point x="1078" y="365" type="curve" smooth="yes"/>
      <point x="1078" y="506"/>
      <point x="1051" y="634"/>
      <point x="796" y="757" type="curve"/>
      <point x="885" y="789"/>
      <point x="1069" y="903"/>
      <point x="1069" y="1099" type="curve" smooth="yes"/>
      <point x="1069" y="1375"/>
      <point x="855" y="1490"/>
      <point x="610" y="1490" type="curve" smooth="yes"/>
      <point x="372" y="1490"/>
      <point x="138" y="1379"/>
      <point x="138" y="1101" type="curve" smooth="yes"/>
      <point x="138" y="925"/>
      <point x="281" y="806"/>
      <point x="394" y="753" type="curve"/>
      <point x="190" y="634"/>
      <point x="120" y="502"/>
      <point x="122" y="351" type="curve" smooth="yes"/>
      <point x="123" y="154"/>
      <point x="297" y="-25"/>
    </contour>
    <contour>
      <point x="600" y="117" type="curve" smooth="yes"/>
      <point x="418" y="118"/>
      <point x="316" y="233"/>
      <point x="312" y="365" type="curve" smooth="yes"/>
      <point x="308" y="483"/>
      <point x="366" y="608"/>
      <point x="517" y="702" type="curve"/>
      <point x="732" y="640"/>
      <point x="899" y="586"/>
      <point x="899" y="368" type="curve" smooth="yes"/>
      <point x="899" y="208"/>
      <point x="747" y="117"/>
    </contour>
    <contour>
      <point x="666" y="806" type="curve"/>
      <point x="461" y="871"/>
      <point x="320" y="914"/>
      <point x="320" y="1104" type="curve" smooth="yes"/>
      <point x="320" y="1277"/>
      <point x="458" y="1350"/>
      <point x="610" y="1350" type="curve" smooth="yes"/>
      <point x="771" y="1350"/>
      <point x="889" y="1266"/>
      <point x="889" y="1101" type="curve" smooth="yes"/>
      <point x="889" y="936"/>
      <point x="759" y="853"/>
    </contour>
  </outline>
</glyph>
<glyph name="nine" format="1">
  <advance width="1220"/>
  <unicode hex="0039"/>
  <outline>
    <contour>
      <point x="567" y="-25" type="curve" smooth="yes"/>
      <point x="881" y="-25"/>
      <point x="1097" y="266"/>
      <point x="1097" y="767" type="curve" smooth="yes"/>
      <point x="1097" y="1215"/>
      <point x="922" y="1490"/>
      <point x="582" y="1490" type="curve" smooth="yes"/>
      <point x="281" y="1490"/>
      <point x="116" y="1238"/>
      <point x="116" y="984" type="curve" smooth="yes"/>
      <point x="116" y="679"/>
      <point x="311" y="512"/>
      <point x="572" y="519" type="curve" smooth="yes"/>
      <point x="685" y="522"/>
      <point x="806" y="557"/>
      <point x="905" y="634" type="curve"/>
      <point x="892" y="279"/>
      <point x="756" y="119"/>
      <point x="560" y="116" type="curve" smooth="yes"/>
      <point x="472" y="115"/>
      <point x="373" y="143"/>
      <point x="280" y="203" type="curve"/>
      <point x="231" y="70" type="line"/>
      <point x="335" y="6"/>
      <point x="469" y="-25"/>
    </contour>
    <contour>
      <point x="591" y="654" type="curve" smooth="yes"/>
      <point x="389" y="649"/>
      <point x="297" y="752"/>
      <point x="297" y="988" type="curve" smooth="yes"/>
      <point x="297" y="1219"/>
      <point x="408" y="1349"/>
      <point x="582" y="1349" type="curve" smooth="yes"/>
      <point x="837" y="1349"/>
      <point x="905" y="1087"/>
      <point x="905" y="815" type="curve" smooth="yes"/>
      <point x="905" y="777" type="line"/>
      <point x="806" y="700"/>
      <point x="700" y="656"/>
    </contour>
  </outline>
</glyph>
<glyph name="question" format="1">
  <advance width="1010"/>
  <unicode hex="003F"/>
  <outline>
    <contour>
      <point x="351" y="358" type="curve"/>
      <point x="505" y="357" type="line"/>
      <point x="743" y="738"/>
      <point x="941" y="805"/>
      <point x="941" y="1094" type="curve" smooth="yes"/>
      <point x="941" y="1290"/>
      <point x="816" y="1491"/>
      <point x="497" y="1491" type="curve" smooth="yes"/>
      <point x="332" y="1491"/>
      <point x="154" y="1439"/>
      <point x="35" y="1250" type="curve"/>
      <point x="154" y="1163" type="line"/>
      <point x="184" y="1209"/>
      <point x="283" y="1351"/>
      <point x="488" y="1351" type="curve" smooth="yes"/>
      <point x="697" y="1351"/>
      <point x="766" y="1227"/>
      <point x="766" y="1089" type="curve" smooth="yes"/>
      <point x="766" y="833"/>
      <point x="587" y="785"/>
    </contour>
    <contour>
      <point x="336" y="0" type="line"/>
      <point x="531" y="0" type="line"/>
      <point x="531" y="223" type="line"/>
      <point x="336" y="223" type="line"/>
    </contour>
  </outline>
</glyph>
<glyph name="at" format="1">
  <advance width="1704"/>
  <unicode hex="0040"/>
  <outline>
    <contour>
      <point x="842" y="-98" type="curve" smooth="yes"/>
      <point x="990" y="-98"/>
      <point x="1138" y="-61"/>
      <point x="1288" y="18" type="curve"/>
      <point x="1236" y="117" type="line"/>
      <point x="1122" y="62"/>
      <point x="980" y="24"/>
      <point x="843" y="24" type="curve" smooth="yes"/>
      <point x="431" y="24"/>
      <point x="254" y="291"/>
      <point x="254" y="592" type="curve" smooth="yes"/>
      <point x="254" y="904"/>
      <point x="496" y="1255"/>
      <point x="886" y="1255" type="curve" smooth="yes"/>
      <point x="1188" y="1255"/>
      <point x="1461" y="1069"/>
      <point x="1461" y="733" type="curve" smooth="yes"/>
      <point x="1461" y="435"/>
      <point x="1373" y="330"/>
      <point x="1277" y="335" type="curve" smooth="yes"/>
      <point x="1208" y="338"/>
      <point x="1171" y="397"/>
      <point x="1183" y="472" type="curve" smooth="yes"/>
      <point x="1273" y="1042" type="line"/>
      <point x="1155" y="1042" type="line"/>
      <point x="1129" y="969" type="line"/>
      <point x="1045" y="1032"/>
      <point x="956" y="1066"/>
      <point x="871" y="1066" type="curve" smooth="yes"/>
      <point x="619" y="1066"/>
      <point x="437" y="804"/>
      <point x="437" y="550" type="curve" smooth="yes"/>
      <point x="437" y="367"/>
      <point x="549" y="199"/>
      <point x="764" y="192" type="curve" smooth="yes"/>
      <point x="898" y="188"/>
      <point x="1039" y="280"/>
      <point x="1089" y="414" type="curve"/>
      <point x="1101" y="272"/>
      <point x="1201" y="231"/>
      <point x="1257" y="228" type="curve" smooth="yes"/>
      <point x="1438" y="216"/>
      <point x="1603" y="400"/>
      <point x="1603" y="721" type="curve" smooth="yes"/>
      <point x="1603" y="1117"/>
      <point x="1264" y="1381"/>
      <point x="883" y="1381" type="curve" smooth="yes"/>
      <point x="389" y="1381"/>
      <point x="102" y="984"/>
      <point x="102" y="601" type="curve" smooth="yes"/>
      <point x="102" y="234"/>
      <point x="332" y="-98"/>
    </contour>
    <contour>
      <point x="781" y="308" type="curve" smooth="yes"/>
      <point x="655" y="308"/>
      <point x="588" y="417"/>
      <point x="588" y="547" type="curve" smooth="yes"/>
      <point x="588" y="780"/>
      <point x="710" y="953"/>
      <point x="883" y="953" type="curve" smooth="yes"/>
      <point x="954" y="953"/>
      <point x="1029" y="926"/>
      <point x="1103" y="873" type="curve"/>
      <point x="1064" y="631" type="line" smooth="yes"/>
      <point x="1020" y="360"/>
      <point x="871" y="308"/>
    </contour>
  </outline>
</glyph>
<glyph name="A" format="1">
  <advance width="1263"/>
  <unicode hex="0041"/>
  <outline>
    <contour>
      <point x="630" y="1464" type="move" name="top"/>
    </contour>
    <contour>
      <point x="1134" y="0" type="move" name="ogonek"/>
    </contour>
    <contour>
      <point x="29" y="0" type="line"/>
      <point x="204" y="0" type="line"/>
      <point x="327" y="391" type="line"/>
      <point x="923" y="391" type="line"/>
      <point x="1052" y="0" type="line"/>
      <point x="1234" y="0" type="line"/>
      <point x="757" y="1464" type="line"/>
      <point x="501" y="1464" type="line"/>
    </contour>
    <contour>
      <point x="367" y="521" type="line"/>
      <point x="626" y="1349" type="line"/>
      <point x="882" y="521" type="line"/>
    </contour>
  </outline>
</glyph>
<glyph name="B" format="1">
  <advance width="1314"/>
  <unicode hex="0042"/>
  <outline>
    <contour>
      <point x="651" y="1464" type="move" name="top"/>
    </contour>
    <contour>
      <point x="146" y="0" type="line"/>
      <point x="557" y="0" type="line" smooth="yes"/>
      <point x="1015" y="0"/>
      <point x="1231" y="85"/>
      <point x="1231" y="413" type="curve" smooth="yes"/>
      <point x="1231" y="618"/>
      <point x="1148" y="754"/>
      <point x="921" y="780" type="curve"/>
      <point x="1135" y="808"/>
      <point x="1184" y="934"/>
      <point x="1186" y="1100" type="curve" smooth="yes"/>
      <point x="1189" y="1416"/>
      <point x="895" y="1464"/>
      <point x="593" y="1464" type="curve" smooth="yes"/>
      <point x="146" y="1464" type="line"/>
    </contour>
    <contour>
      <point x="321" y="133" type="line"/>
      <point x="321" y="717" type="line"/>
      <point x="609" y="717" type="line" smooth="yes"/>
      <point x="897" y="717"/>
      <point x="1057" y="684"/>
      <point x="1057" y="417" type="curve" smooth="yes"/>
      <point x="1057" y="143"/>
      <point x="823" y="133"/>
      <point x="602" y="133" type="curve" smooth="yes"/>
    </contour>
    <contour>
      <point x="321" y="845" type="line"/>
      <point x="321" y="1331" type="line"/>
      <point x="600" y="1331" type="line" smooth="yes"/>
      <point x="835" y="1331"/>
      <point x="1014" y="1327"/>
      <point x="1019" y="1106" type="curve" smooth="yes"/>
      <point x="1023" y="872"/>
      <point x="906" y="845"/>
      <point x="595" y="845" type="curve" smooth="yes"/>
    </contour>
  </outline>
</glyph>
<glyph name="E" format="1">
  <advance width="1216"/>
  <unicode hex="0045"/>
  <outline>
    <contour>
      <point x="677" y="1464" type="move" name="top"/>
    </contour>
    <contour>
      <point x="146" y="0" type="line"/>
      <point x="1143" y="0" type="line"/>
      <point x="1143" y="133" type="line"/>
      <point x="321" y="133" type="line"/>
      <point x="321" y="711" type="line"/>
      <point x="1027" y="711" type="line"/>
      <point x="1027" y="848" type="line"/>
      <point x="321" y="848" type="line"/>
      <point x="321" y="1331" type="line"/>
      <point x="1132" y="1331" type="line"/>
      <point x="1132" y="1464" type="line"/>
      <point x="146" y="1464" type="line"/>
    </contour>
  </outline>
</glyph>
<glyph name="F" format="1">
  <advance width="1192"/>
  <unicode hex="0046"/>
  <outline>
    <contour>
      <point x="661" y="1464" type="move" name="top"/>
    </contour>
    <contour>
      <point x="146" y="0" type="line"/>
      <point x="321" y="0" type="line"/>
      <point x="321" y="702" type="line"/>
      <point x="1028" y="702" type="line"/>
      <point x="1028" y="838" type="line"/>
      <point x="321" y="838" type="line"/>
      <point x="321" y="1331" type="line"/>
      <point x="1137" y="1331" type="line"/>
      <point x="1137" y="1464" type="line"/>
      <point x="146" y="1464" type="line"/>
    </contour>
  </outline>
</glyph>
<glyph name="H" format="1">
  <advance width="1483"/>
  <unicode hex="0048"/>
  <outline>
    <contour>
      <point x="751" y="1464" type="move" name="top"/>
    </contour>
    <contour>
      <point x="146" y="0" type="line"/>
      <point x="321" y="0" type="line"/>
      <point x="321" y="700" type="line"/>
      <point x="1162" y="700" type="line"/>
      <point x="1162" y="0" type="line"/>
      <point x="1337" y="0" type="line"/>
      <point x="1337" y="1464" type="line"/>
      <point x="1162" y="1464" type="line"/>
      <point x="1162" y="839" type="line"/>
      <point x="321" y="839" type="line"/>
      <point x="321" y="1464" type="line"/>
      <point x="146" y="1464" type="line"/>
    </contour>
  </outline>
</glyph>
<glyph name="K" format="1">
  <advance width="1274"/>
  <unicode hex="004B"/>
  <outline>
    <contour>
      <point x="641" y="1464" type="move" name="top"/>
    </contour>
    <contour>
      <point x="663" y="0" type="move" name="bot"/>
    </contour>
    <contour>
      <point x="146" y="0" type="line"/>
      <point x="321" y="0" type="line"/>
      <point x="321" y="545" type="line"/>
      <point x="563" y="795" type="line"/>
      <point x="1072" y="0" type="line"/>
      <point x="1272" y="0" type="line"/>
      <point x="683" y="918" type="line"/>
      <point x="1212" y="1464" type="line"/>
      <point x="1000" y="1464" type="line"/>
      <point x="321" y="754" type="line"/>
      <point x="321" y="1464" type="line"/>
      <point x="146" y="1464" type="line"/>
    </contour>
  </outline>
</glyph>
<glyph name="L" format="1">
  <advance width="1045"/>
  <unicode hex="004C"/>
  <outline>
    <contour>
      <point x="649" y="1474" type="move" name="top"/>
    </contour>
    <contour>
      <point x="472" y="1023" type="move" name="caron.alt"/>
    </contour>
    <contour>
      <point x="602" y="0" type="move" name="bot"/>
    </contour>
    <contour>
      <point x="146" y="0" type="line"/>
      <point x="1060" y="0" type="line"/>
      <point x="1060" y="133" type="line"/>
      <point x="321" y="133" type="line"/>
      <point x="321" y="1464" type="line"/>
      <point x="146" y="1464" type="line"/>
    </contour>
  </outline>
</glyph>
<glyph name="N" format="1">
  <advance width="1498"/>
  <unicode hex="004E"/>
  <outline>
    <contour>
      <point x="780" y="1470" type="move" name="top"/>
    </contour>
    <contour>
      <point x="745" y="0" type="move" name="bot"/>
    </contour>
    <contour>
      <point x="146" y="0" type="line"/>
      <point x="304" y="0" type="line"/>
      <point x="304" y="1256" type="line"/>
      <point x="1197" y="0" type="line"/>
      <point x="1352" y="0" type="line"/>
      <point x="1352" y="1464" type="line"/>
      <point x="1199" y="1464" type="line"/>
      <point x="1199" y="267" type="line"/>
      <point x="340" y="1464" type="line"/>
      <point x="146" y="1464" type="line"/>
    </contour>
  </outline>
</glyph>
<glyph name="V" format="1">
  <advance width="1164"/>
  <unicode hex="0056"/>
  <outline>
    <contour>
      <point x="499" y="0" type="line"/>
      <point x="666" y="0" type="line"/>
      <point x="1168" y="1464" type="line"/>
      <point x="995" y="1464" type="line"/>
      <point x="587" y="231" type="line"/>
      <point x="172" y="1464" type="line"/>
      <point x="-10" y="1464" type="line"/>
    </contour>
  </outline>
</glyph>
<glyph name="X" format="1">
  <advance width="1269"/>
  <unicode hex="0058"/>
  <outline>
    <contour>
      <point x="2" y="0" type="line"/>
      <point x="202" y="0" type="line"/>
      <point x="631" y="618" type="line"/>
      <point x="1060" y="0" type="line"/>
      <point x="1267" y="0" type="line"/>
      <point x="736" y="769" type="line"/>
      <point x="1225" y="1464" type="line"/>
      <point x="1025" y="1464" type="line"/>
      <point x="638" y="910" type="line"/>
      <point x="254" y="1464" type="line"/>
      <point x="45" y="1464" type="line"/>
      <point x="533" y="759" type="line"/>
    </contour>
  </outline>
</glyph>
<glyph name="Z" format="1">
  <advance width="1176"/>
  <unicode hex="005A"/>
  <outline>
    <contour>
      <point x="627" y="1464" type="move" name="top"/>
    </contour>
    <contour>
      <point x="45" y="0" type="line"/>
      <point x="1134" y="0" type="line"/>
      <point x="1140" y="132" type="line"/>
      <point x="269" y="132" type="line"/>
      <point x="1134" y="1351" type="line"/>
      <point x="1134" y="1464" type="line"/>
      <point x="128" y="1464" type="line"/>
      <point x="128" y="1332" type="line"/>
      <point x="909" y="1332" type="line"/>
      <point x="45" y="118" type="line"/>
    </contour>
  </outline>
</glyph>
<glyph name="backslash" format="1">
  <advance width="632"/>
  <unicode hex="005C"/>
  <outline>
    <contour>
      <point x="439" y="-5" type="line"/>
      <point x="613" y="-5" type="line"/>
      <point x="216" y="1464" type="line"/>
      <point x="42" y="1464" type="line"/>
    </contour>
  </outline>
</glyph>
<glyph name="asciicircum" format="1">
  <advance width="1053"/>
  <unicode hex="005E"/>
  <outline>
    <contour>
      <point x="91" y="100" type="line"/>
      <point x="257" y="100" type="line"/>
      <point x="523" y="807" type="line"/>
      <point x="782" y="100" type="line"/>
      <point x="965" y="100" type="line"/>
      <point x="607" y="999" type="line"/>
      <point x="455" y="999" type="line"/>
    </contour>
  </outline>
</glyph>
<glyph name="a" format="1">
  <advance width="1002"/>
  <unicode hex="0061"/>
  <outline>
    <contour>
      <point x="519" y="1023" type="move" name="top"/>
    </contour>
    <contour>
      <point x="394" y="-25" type="curve" smooth="yes"/>
      <point x="541" y="-25"/>
      <point x="654" y="28"/>
      <point x="726" y="128" type="curve"/>
      <point x="741" y="0" type="line"/>
      <point x="887" y="0" type="line"/>
      <point x="887" y="676" type="line" smooth="yes"/>
      <point x="887" y="929"/>
      <point x="755" y="1045"/>
      <point x="513" y="1045" type="curve" smooth="yes"/>
      <point x="345" y="1045"/>
      <point x="229" y="1001"/>
      <point x="119" y="919" type="curve"/>
      <point x="119" y="919"/>
      <point x="187" y="819"/>
      <point x="187" y="818" type="curve"/>
      <point x="281" y="887"/>
      <point x="380" y="924"/>
      <point x="505" y="924" type="curve" smooth="yes"/>
      <point x="676" y="924"/>
      <point x="717" y="856"/>
      <point x="717" y="645" type="curve" smooth="yes"/>
      <point x="717" y="594" type="line"/>
      <point x="604" y="577" type="line" smooth="yes"/>
      <point x="288" y="530"/>
      <point x="90" y="491"/>
      <point x="90" y="235" type="curve" smooth="yes"/>
      <point x="90" y="57"/>
      <point x="225" y="-25"/>
    </contour>
    <contour>
      <point x="421" y="95" type="curve" smooth="yes"/>
      <point x="296" y="95"/>
      <point x="249" y="146"/>
      <point x="248" y="250" type="curve" smooth="yes"/>
      <point x="247" y="377"/>
      <point x="306" y="418"/>
      <point x="587" y="464" type="curve" smooth="yes"/>
      <point x="717" y="486" type="line"/>
      <point x="717" y="243" type="line"/>
      <point x="637" y="147"/>
      <point x="542" y="95"/>
    </contour>
  </outline>
</glyph>
<glyph name="d" format="1">
  <advance width="1111"/>
  <unicode hex="0064"/>
  <outline>
    <contour>
      <point x="947" y="1023" type="move" name="caron.alt"/>
    </contour>
    <contour>
      <point x="520" y="-24" type="curve" smooth="yes"/>
      <point x="682" y="-24"/>
      <point x="786" y="51"/>
      <point x="845" y="166" type="curve"/>
      <point x="853" y="2" type="line"/>
      <point x="985" y="2" type="line"/>
      <point x="985" y="1476" type="line"/>
      <point x="815" y="1476" type="line"/>
      <point x="815" y="891" type="line"/>
      <point x="751" y="987"/>
      <point x="652" y="1045"/>
      <point x="522" y="1045" type="curve" smooth="yes"/>
      <point x="268" y="1045"/>
      <point x="96" y="863"/>
      <point x="96" y="510" type="curve" smooth="yes"/>
      <point x="96" y="182"/>
      <point x="249" y="-24"/>
    </contour>
    <contour>
      <point x="529" y="97" type="curve" smooth="yes"/>
      <point x="354" y="106"/>
      <point x="268" y="241"/>
      <point x="268" y="518" type="curve" smooth="yes"/>
      <point x="268" y="782"/>
      <point x="357" y="921"/>
      <point x="529" y="924" type="curve" smooth="yes"/>
      <point x="693" y="926"/>
      <point x="823" y="819"/>
      <point x="823" y="521" type="curve" smooth="yes"/>
      <point x="823" y="239"/>
      <point x="732" y="87"/>
    </contour>
  </outline>
</glyph>
<glyph name="g" format="1">
  <advance width="1121"/>
  <unicode hex="0067"/>
  <outline>
    <contour>
      <point x="537" y="1023" type="move" name="top"/>
    </contour>
    <contour>
      <point x="547" y="-448" type="curve" smooth="yes"/>
      <point x="830" y="-446"/>
      <point x="997" y="-281"/>
      <point x="997" y="34" type="curve" smooth="yes"/>
      <point x="997" y="1023" type="line"/>
      <point x="852" y="1023" type="line"/>
      <point x="836" y="860" type="line"/>
      <point x="772" y="974"/>
      <point x="666" y="1045"/>
      <point x="522" y="1045" type="curve" smooth="yes"/>
      <point x="269" y="1045"/>
      <point x="86" y="860"/>
      <point x="86" y="510" type="curve" smooth="yes"/>
      <point x="86" y="186"/>
      <point x="253" y="-24"/>
      <point x="524" y="-24" type="curve" smooth="yes"/>
      <point x="668" y="-24"/>
      <point x="766" y="34"/>
      <point x="828" y="127" type="curve"/>
      <point x="828" y="33" type="line" smooth="yes"/>
      <point x="828" y="-186"/>
      <point x="751" y="-319"/>
      <point x="548" y="-320" type="curve" smooth="yes"/>
      <point x="397" y="-321"/>
      <point x="312" y="-268"/>
      <point x="245" y="-185" type="curve"/>
      <point x="153" y="-279" type="line"/>
      <point x="224" y="-368"/>
      <point x="362" y="-449"/>
    </contour>
    <contour>
      <point x="533" y="97" type="curve" smooth="yes"/>
      <point x="359" y="97"/>
      <point x="258" y="240"/>
      <point x="258" y="516" type="curve" smooth="yes"/>
      <point x="258" y="775"/>
      <point x="363" y="925"/>
      <point x="532" y="925" type="curve" smooth="yes"/>
      <point x="699" y="925"/>
      <point x="828" y="828"/>
      <point x="828" y="505" type="curve" smooth="yes"/>
      <point x="828" y="227"/>
      <point x="753" y="97"/>
    </contour>
  </outline>
</glyph>
<glyph name="p" format="1">
  <advance width="1118"/>
  <unicode hex="0070"/>
  <outline>
    <contour>
      <point x="126" y="-358" type="line"/>
      <point x="296" y="-358" type="line"/>
      <point x="296" y="124" type="line"/>
      <point x="358" y="32"/>
      <point x="457" y="-24"/>
      <point x="599" y="-24" type="curve" smooth="yes"/>
      <point x="870" y="-24"/>
      <point x="1023" y="182"/>
      <point x="1023" y="510" type="curve" smooth="yes"/>
      <point x="1023" y="861"/>
      <point x="853" y="1045"/>
      <point x="599" y="1045" type="curve" smooth="yes"/>
      <point x="456" y="1045"/>
      <point x="352" y="975"/>
      <point x="289" y="863" type="curve"/>
      <point x="274" y="1023" type="line"/>
      <point x="126" y="1023" type="line"/>
    </contour>
    <contour>
      <point x="590" y="97" type="curve" smooth="yes"/>
      <point x="367" y="97"/>
      <point x="296" y="222"/>
      <point x="296" y="534" type="curve" smooth="yes"/>
      <point x="299" y="824"/>
      <point x="428" y="925"/>
      <point x="589" y="925" type="curve" smooth="yes"/>
      <point x="761" y="925"/>
      <point x="849" y="779"/>
      <point x="849" y="516" type="curve" smooth="yes"/>
      <point x="849" y="239"/>
      <point x="764" y="97"/>
    </contour>
  </outline>
</glyph>
<glyph name="r" format="1">
  <advance width="651"/>
  <unicode hex="0072"/>
  <outline>
    <contour>
      <point x="396" y="1023" type="move" name="top"/>
    </contour>
    <contour>
      <point x="230" y="0" type="move" name="bot"/>
    </contour>
    <contour>
      <point x="126" y="0" type="line"/>
      <point x="296" y="0" type="line"/>
      <point x="295" y="534" type="line"/>
      <point x="299" y="715"/>
      <point x="382" y="881"/>
      <point x="601" y="881" type="curve"/>
      <point x="601" y="1031" type="line"/>
      <point x="468" y="1031"/>
      <point x="364" y="974"/>
      <point x="295" y="845" type="curve"/>
      <point x="295" y="1023" type="line"/>
      <point x="126" y="1023" type="line"/>
    </contour>
  </outline>
</glyph>
<glyph name="s" format="1">
  <advance width="920"/>
  <unicode hex="0073"/>
  <outline>
    <contour>
      <point x="479" y="1023" type="move" name="top"/>
    </contour>
    <contour>
      <point x="468" y="0" type="move" name="bot"/>
    </contour>
    <contour>
      <point x="452" y="-24" type="curve" smooth="yes"/>
      <point x="734" y="-24"/>
      <point x="851" y="84"/>
      <point x="851" y="284" type="curve" smooth="yes"/>
      <point x="851" y="477"/>
      <point x="752" y="536"/>
      <point x="499" y="589" type="curve" smooth="yes"/>
      <point x="307" y="629"/>
      <point x="258" y="648"/>
      <point x="259" y="761" type="curve" smooth="yes"/>
      <point x="261" y="872"/>
      <point x="317" y="925"/>
      <point x="486" y="925" type="curve" smooth="yes"/>
      <point x="617" y="925"/>
      <point x="683" y="886"/>
      <point x="732" y="784" type="curve"/>
      <point x="732" y="785"/>
      <point x="839" y="844"/>
      <point x="839" y="844" type="curve"/>
      <point x="767" y="994"/>
      <point x="658" y="1045"/>
      <point x="479" y="1045" type="curve" smooth="yes"/>
      <point x="253" y="1045"/>
      <point x="100" y="945"/>
      <point x="100" y="761" type="curve" smooth="yes"/>
      <point x="100" y="559"/>
      <point x="200" y="514"/>
      <point x="408" y="467" type="curve" smooth="yes"/>
      <point x="666" y="409"/>
      <point x="704" y="406"/>
      <point x="703" y="262" type="curve" smooth="yes"/>
      <point x="703" y="135"/>
      <point x="604" y="97"/>
      <point x="466" y="97" type="curve" smooth="yes"/>
      <point x="303" y="97"/>
      <point x="242" y="147"/>
      <point x="193" y="277" type="curve"/>
      <point x="68" y="226" type="line"/>
      <point x="120" y="35"/>
      <point x="287" y="-24"/>
    </contour>
  </outline>
</glyph>
<glyph name="t" format="1">
  <advance width="671"/>
  <unicode hex="0074"/>
  <outline>
    <contour>
      <point x="283" y="1271" type="move" name="top"/>
    </contour>
    <contour>
      <point x="309" y="1023" type="move" name="caron.alt"/>
    </contour>
    <contour>
      <point x="391" y="0" type="move" name="bot"/>
    </contour>
    <contour>
      <point x="467" y="-16" type="curve" smooth="yes"/>
      <point x="532" y="-16"/>
      <point x="602" y="5"/>
      <point x="649" y="30" type="curve"/>
      <point x="621" y="141" type="line"/>
      <point x="577" y="122"/>
      <point x="531" y="110"/>
      <point x="489" y="110" type="curve" smooth="yes"/>
      <point x="409" y="111"/>
      <point x="361" y="156"/>
      <point x="361" y="285" type="curve" smooth="yes"/>
      <point x="361" y="907" type="line"/>
      <point x="585" y="907" type="line"/>
      <point x="585" y="1023" type="line"/>
      <point x="361" y="1023" type="line"/>
      <point x="361" y="1390" type="line"/>
      <point x="198" y="1346" type="line"/>
      <point x="191" y="1023" type="line"/>
      <point x="42" y="1023" type="line"/>
      <point x="42" y="907" type="line"/>
      <point x="191" y="907" type="line"/>
      <point x="191" y="314" type="line" smooth="yes"/>
      <point x="191" y="72"/>
      <point x="297" y="-16"/>
    </contour>
  </outline>
</glyph>
<glyph name="v" format="1">
  <advance width="955"/>
  <unicode hex="0076"/>
  <outline>
    <contour>
      <point x="396" y="0" type="line"/>
      <point x="543" y="0" type="line"/>
      <point x="934" y="1023" type="line"/>
      <point x="770" y="1023" type="line"/>
      <point x="478" y="213" type="line"/>
      <point x="190" y="1023" type="line"/>
      <point x="19" y="1023" type="line"/>
    </contour>
  </outline>
</glyph>
<glyph name="x" format="1">
  <advance width="971"/>
  <unicode hex="0078"/>
  <outline>
    <contour>
      <point x="21" y="0" type="line"/>
      <point x="202" y="0" type="line"/>
      <point x="482" y="392" type="line"/>
      <point x="769" y="0" type="line"/>
      <point x="956" y="0" type="line"/>
      <point x="579" y="514" type="line"/>
      <point x="948" y="1023" type="line"/>
      <point x="766" y="1023" type="line"/>
      <point x="492" y="632" type="line"/>
      <point x="206" y="1023" type="line"/>
      <point x="19" y="1023" type="line"/>
      <point x="393" y="512" type="line"/>
    </contour>
  </outline>
</glyph>
<glyph name="y" format="1">
  <advance width="980"/>
  <unicode hex="0079"/>
  <outline>
    <contour>
      <point x="496" y="1023" type="move" name="top"/>
    </contour>
    <contour>
      <point x="173" y="-319" type="curve" smooth="yes"/>
      <point x="390" y="-324"/>
      <point x="473" y="-194"/>
      <point x="581" y="85" type="curve" smooth="yes"/>
      <point x="946" y="1023" type="line"/>
      <point x="778" y="1023" type="line"/>
      <point x="495" y="268" type="line"/>
      <point x="211" y="1023" type="line"/>
      <point x="36" y="1023" type="line"/>
      <point x="409" y="92" type="line"/>
      <point x="391" y="40" type="line" smooth="yes"/>
      <point x="335" y="-132"/>
      <point x="278" y="-173"/>
      <point x="163" y="-173" type="curve" smooth="yes"/>
      <point x="140" y="-173"/>
      <point x="115" y="-170"/>
      <point x="86" y="-166" type="curve"/>
      <point x="67" y="-304" type="line"/>
      <point x="104" y="-314"/>
      <point x="140" y="-318"/>
    </contour>
  </outline>
</glyph>
<glyph name="z" format="1">
  <advance width="879"/>
  <unicode hex="007A"/>
  <outline>
    <contour>
      <point x="466" y="1023" type="move" name="top"/>
    </contour>
    <contour>
      <point x="64" y="0" type="line"/>
      <point x="826" y="0" type="line"/>
      <point x="826" y="123" type="line"/>
      <point x="256" y="123" type="line"/>
      <point x="828" y="908" type="line"/>
      <point x="828" y="1023" type="line"/>
      <point x="86" y="1023" type="line"/>
      <point x="86" y="899" type="line"/>
      <point x="627" y="899" type="line"/>
      <point x="64" y="114" type="line"/>
    </contour>
  </outline>
</glyph>
<glyph name="braceleft" format="1">
  <advance width="644"/>
  <unicode hex="007B"/>
  <outline>
    <contour>
      <point x="616" y="-130" type="curve"/>
      <point x="616" y="-23" type="line"/>
      <point x="374" y="-23"/>
      <point x="364" y="42"/>
      <point x="364" y="381" type="curve" smooth="yes"/>
      <point x="364" y="563"/>
      <point x="330" y="676"/>
      <point x="201" y="707" type="curve"/>
      <point x="330" y="738"/>
      <point x="364" y="851"/>
      <point x="364" y="1033" type="curve" smooth="yes"/>
      <point x="364" y="1372"/>
      <point x="374" y="1437"/>
      <point x="616" y="1437" type="curve"/>
      <point x="616" y="1544" type="line"/>
      <point x="230" y="1544"/>
      <point x="182" y="1408"/>
      <point x="182" y="1038" type="curve" smooth="yes"/>
      <point x="182" y="907"/>
      <point x="184" y="775"/>
      <point x="19" y="763" type="curve"/>
      <point x="19" y="651" type="line"/>
      <point x="184" y="639"/>
      <point x="182" y="507"/>
      <point x="182" y="376" type="curve" smooth="yes"/>
      <point x="182" y="6"/>
      <point x="230" y="-130"/>
    </contour>
  </outline>
</glyph>
<glyph name="braceright" format="1">
  <advance width="644"/>
  <unicode hex="007D"/>
  <outline>
    <contour>
      <point x="19" y="-130" type="line"/>
      <point x="405" y="-130"/>
      <point x="453" y="6"/>
      <point x="453" y="376" type="curve" smooth="yes"/>
      <point x="453" y="507"/>
      <point x="451" y="639"/>
      <point x="616" y="651" type="curve"/>
      <point x="616" y="763" type="line"/>
      <point x="451" y="775"/>
      <point x="453" y="907"/>
      <point x="453" y="1038" type="curve" smooth="yes"/>
      <point x="453" y="1408"/>
      <point x="405" y="1544"/>
      <point x="19" y="1544" type="curve"/>
      <point x="19" y="1437" type="line"/>
      <point x="261" y="1437"/>
      <point x="271" y="1372"/>
      <point x="271" y="1033" type="curve" smooth="yes"/>
      <point x="271" y="851"/>
      <point x="305" y="738"/>
      <point x="434" y="707" type="curve"/>
      <point x="305" y="676"/>
      <point x="271" y="563"/>
      <point x="271" y="381" type="curve" smooth="yes"/>
      <point x="271" y="42"/>
      <point x="261" y="-23"/>
      <point x="19" y="-23" type="curve"/>
    </contour>
  </outline>
</glyph>
<glyph name="asciitilde" format="1">
  <advance width="962"/>
  <unicode hex="007E"/>
  <outline>
    <contour>
      <point x="770" y="684" type="curve" smooth="yes"/>
      <point x="877" y="681"/>
      <point x="936" y="766"/>
      <point x="945" y="958" type="curve"/>
      <point x="802" y="958" type="line"/>
      <point x="784" y="875"/>
      <point x="780" y="846"/>
      <point x="723" y="846" type="curve" smooth="yes"/>
      <point x="649" y="846"/>
      <point x="346" y="959"/>
      <point x="218" y="960" type="curve" smooth="yes"/>
      <point x="126" y="962"/>
      <point x="32" y="932"/>
      <point x="17" y="695" type="curve"/>
      <point x="159" y="695" type="line"/>
      <point x="180" y="798"/>
      <point x="205" y="805"/>
      <point x="237" y="805" type="curve" smooth="yes"/>
      <point x="334" y="805"/>
      <point x="602" y="688"/>
    </contour>
  </outline>
</glyph>
<glyph name="yen" format="1">
  <advance width="1162"/>
  <unicode hex="00A5"/>
  <outline>
    <contour>
      <point x="240" y="322" type="line"/>
      <point x="926" y="322" type="line"/>
      <point x="926" y="425" type="line"/>
      <point x="240" y="425" type="line"/>
    </contour>
    <contour>
      <point x="240" y="543" type="line"/>
      <point x="926" y="543" type="line"/>
      <point x="926" y="646" type="line"/>
      <point x="240" y="646" type="line"/>
    </contour>
    <component base="Y"/>
  </outline>
</glyph>
<glyph name="section" format="1">
  <advance width="1005"/>
  <unicode hex="00A7"/>
  <outline>
    <contour>
      <point x="535" y="-25" type="curve" smooth="yes"/>
      <point x="759" y="-25"/>
      <point x="897" y="71"/>
      <point x="907" y="258" type="curve" smooth="yes"/>
      <point x="913" y="357"/>
      <point x="848" y="432"/>
      <point x="773" y="482" type="curve"/>
      <point x="860" y="574"/>
      <point x="875" y="646"/>
      <point x="878" y="713" type="curve" smooth="yes"/>
      <point x="889" y="1011"/>
      <point x="324" y="1015"/>
      <point x="325" y="1205" type="curve" smooth="yes"/>
      <point x="323" y="1298"/>
      <point x="390" y="1354"/>
      <point x="528" y="1354" type="curve" smooth="yes"/>
      <point x="640" y="1355"/>
      <point x="715" y="1326"/>
      <point x="775" y="1217" type="curve"/>
      <point x="775" y="1218"/>
      <point x="884" y="1285"/>
      <point x="884" y="1285" type="curve"/>
      <point x="811" y="1437"/>
      <point x="705" y="1490"/>
      <point x="528" y="1490" type="curve" smooth="yes"/>
      <point x="309" y="1490"/>
      <point x="157" y="1391"/>
      <point x="157" y="1207" type="curve" smooth="yes"/>
      <point x="157" y="1089"/>
      <point x="233" y="1027"/>
      <point x="301" y="986" type="curve"/>
      <point x="199" y="897"/>
      <point x="168" y="823"/>
      <point x="166" y="755" type="curve" smooth="yes"/>
      <point x="159" y="434"/>
      <point x="788" y="462"/>
      <point x="756" y="249" type="curve" smooth="yes"/>
      <point x="743" y="165"/>
      <point x="680" y="117"/>
      <point x="539" y="117" type="curve" smooth="yes"/>
      <point x="393" y="117"/>
      <point x="295" y="176"/>
      <point x="249" y="317" type="curve"/>
      <point x="127" y="273" type="line"/>
      <point x="166" y="49"/>
      <point x="370" y="-25"/>
    </contour>
    <contour>
      <point x="655" y="542" type="curve"/>
      <point x="397" y="661"/>
      <point x="189" y="683"/>
      <point x="402" y="930" type="curve"/>
      <point x="697" y="812"/>
      <point x="804" y="780"/>
    </contour>
  </outline>
</glyph>
<glyph name="ordfeminine" format="1">
  <advance width="946"/>
  <unicode hex="00AA"/>
  <outline>
    <contour>
      <point x="405" y="583" type="curve" smooth="yes"/>
      <point x="525" y="585"/>
      <point x="601" y="636"/>
      <point x="662" y="696" type="curve"/>
      <point x="678" y="603" type="line"/>
      <point x="806" y="603" type="line"/>
      <point x="806" y="1144" type="line" smooth="yes"/>
      <point x="806" y="1362"/>
      <point x="691" y="1474"/>
      <point x="495" y="1474" type="curve" smooth="yes"/>
      <point x="398" y="1474"/>
      <point x="260" y="1422"/>
      <point x="185" y="1340" type="curve"/>
      <point x="185" y="1340"/>
      <point x="278" y="1256"/>
      <point x="278" y="1255" type="curve"/>
      <point x="335" y="1311"/>
      <point x="415" y="1354"/>
      <point x="497" y="1354" type="curve" smooth="yes"/>
      <point x="591" y="1354"/>
      <point x="658" y="1299"/>
      <point x="658" y="1170" type="curve" smooth="yes"/>
      <point x="658" y="1110" type="line"/>
      <point x="565" y="1101" type="line" smooth="yes"/>
      <point x="330" y="1076"/>
      <point x="152" y="1018"/>
      <point x="152" y="804" type="curve" smooth="yes"/>
      <point x="152" y="656"/>
      <point x="274" y="581"/>
    </contour>
    <contour>
      <point x="404" y="678" type="curve" smooth="yes"/>
      <point x="313" y="689"/>
      <point x="281" y="749"/>
      <point x="288" y="831" type="curve" smooth="yes"/>
      <point x="297" y="926"/>
      <point x="361" y="974"/>
      <point x="563" y="996" type="curve" smooth="yes"/>
      <point x="658" y="1006" type="line"/>
      <point x="658" y="788" type="line"/>
      <point x="596" y="726"/>
      <point x="485" y="669"/>
    </contour>
  </outline>
</glyph>
<glyph name="twosuperior" format="1">
  <advance width="1236"/>
  <unicode hex="00B2"/>
  <outline>
    <contour>
      <point x="351" y="666" type="curve"/>
      <point x="883" y="666" type="line"/>
      <point x="883" y="761" type="line"/>
      <point x="505" y="761" type="line"/>
      <point x="612" y="935"/>
      <point x="885" y="995"/>
      <point x="882" y="1242" type="curve" smooth="yes"/>
      <point x="879" y="1409"/>
      <point x="756" y="1490"/>
      <point x="615" y="1490" type="curve" smooth="yes"/>
      <point x="491" y="1490"/>
      <point x="384" y="1433"/>
      <point x="327" y="1292" type="curve"/>
      <point x="336" y="1289"/>
      <point x="432" y="1245"/>
      <point x="432" y="1245" type="curve"/>
      <point x="466" y="1339"/>
      <point x="535" y="1386"/>
      <point x="618" y="1386" type="curve" smooth="yes"/>
      <point x="697" y="1386"/>
      <point x="758" y="1332"/>
      <point x="758" y="1238" type="curve" smooth="yes"/>
      <point x="758" y="1025"/>
      <point x="357" y="948"/>
    </contour>
  </outline>
</glyph>
<glyph name="threesuperior" format="1">
  <advance width="962"/>
  <unicode hex="00B3"/>
  <outline>
    <contour>
      <point x="467" y="639" type="curve" smooth="yes"/>
      <point x="646" y="639"/>
      <point x="741" y="757"/>
      <point x="741" y="881" type="curve"/>
      <point x="738" y="978"/>
      <point x="698" y="1066"/>
      <point x="572" y="1104" type="curve"/>
      <point x="665" y="1137"/>
      <point x="702" y="1214"/>
      <point x="702" y="1292" type="curve" smooth="yes"/>
      <point x="702" y="1397"/>
      <point x="613" y="1484"/>
      <point x="461" y="1484" type="curve" smooth="yes"/>
      <point x="366" y="1484"/>
      <point x="268" y="1439"/>
      <point x="223" y="1348" type="curve"/>
      <point x="309" y="1292" type="line"/>
      <point x="347" y="1361"/>
      <point x="404" y="1387"/>
      <point x="463" y="1387" type="curve" smooth="yes"/>
      <point x="540" y="1387"/>
      <point x="579" y="1343"/>
      <point x="579" y="1281" type="curve" smooth="yes"/>
      <point x="579" y="1207"/>
      <point x="552" y="1147"/>
      <point x="405" y="1146" type="curve"/>
      <point x="405" y="1049" type="line"/>
      <point x="548" y="1049"/>
      <point x="619" y="998"/>
      <point x="616" y="876" type="curve" smooth="yes"/>
      <point x="616" y="806"/>
      <point x="566" y="738"/>
      <point x="467" y="739" type="curve" smooth="yes"/>
      <point x="382" y="741"/>
      <point x="327" y="783"/>
      <point x="298" y="869" type="curve"/>
      <point x="202" y="829" type="line"/>
      <point x="235" y="691"/>
      <point x="351" y="640"/>
    </contour>
  </outline>
</glyph>
<glyph name="paragraph" format="1">
  <advance width="1038"/>
  <unicode hex="00B6"/>
  <outline>
    <contour>
      <point x="436" y="0" type="line"/>
      <point x="587" y="0" type="line"/>
      <point x="587" y="1326" type="line"/>
      <point x="698" y="1326" type="line"/>
      <point x="698" y="0" type="line"/>
      <point x="849" y="0" type="line"/>
      <point x="849" y="1326" type="line"/>
      <point x="990" y="1326" type="line"/>
      <point x="990" y="1464" type="line"/>
      <point x="594" y="1464" type="line" smooth="yes"/>
      <point x="170" y="1464"/>
      <point x="88" y="1304"/>
      <point x="88" y="1125" type="curve" smooth="yes"/>
      <point x="88" y="929"/>
      <point x="222" y="799"/>
      <point x="436" y="799" type="curve"/>
    </contour>
  </outline>
</glyph>
<glyph name="periodcentered" format="1">
  <advance width="434"/>
  <unicode hex="00B7"/>
  <outline>
    <contour>
      <point x="115" y="536" type="line"/>
      <point x="317" y="536" type="line"/>
      <point x="317" y="761" type="line"/>
      <point x="115" y="761" type="line"/>
    </contour>
  </outline>
</glyph>
<glyph name="cedilla" format="1">
  <advance width="435"/>
  <unicode hex="00B8"/>
  <outline>
    <contour>
      <point x="251" y="0" type="move" name="_bot"/>
    </contour>
    <contour>
      <point x="210" y="-491" type="curve" smooth="yes"/>
      <point x="317" y="-491"/>
      <point x="362" y="-382"/>
      <point x="362" y="-290" type="curve" smooth="yes"/>
      <point x="362" y="-99" type="line"/>
      <point x="135" y="-99" type="line"/>
      <point x="135" y="-275" type="line"/>
      <point x="242" y="-275" type="line"/>
      <point x="242" y="-385"/>
      <point x="233" y="-414"/>
      <point x="204" y="-414" type="curve" smooth="yes"/>
      <point x="194" y="-414"/>
      <point x="180" y="-409"/>
      <point x="165" y="-405" type="curve"/>
      <point x="165" y="-482" type="line"/>
      <point x="179" y="-488"/>
      <point x="196" y="-491"/>
    </contour>
  </outline>
</glyph>
<glyph name="onesuperior" format="1">
  <advance width="697"/>
  <unicode hex="00B9"/>
  <outline>
    <contour>
      <point x="270" y="1334" type="line"/>
      <point x="330" y="1003" type="line"/>
      <point x="398" y="668" type="line"/>
      <point x="457" y="1085" type="line"/>
      <point x="395" y="1475" type="line"/>
      <point x="255" y="1435" type="line"/>
      <point x="183" y="1346" type="line"/>
    </contour>
  </outline>
</glyph>
<glyph name="ordmasculine" format="1">
  <advance width="1000"/>
  <unicode hex="00BA"/>
  <outline>
    <contour>
      <point x="517" y="701" type="curve" smooth="yes"/>
      <point x="357" y="701"/>
      <point x="289" y="851"/>
      <point x="289" y="1031" type="curve" smooth="yes"/>
      <point x="289" y="1208"/>
      <point x="357" y="1358"/>
      <point x="516" y="1358" type="curve" smooth="yes"/>
      <point x="674" y="1358"/>
      <point x="744" y="1208"/>
      <point x="744" y="1029" type="curve" smooth="yes"/>
      <point x="744" y="850"/>
      <point x="674" y="701"/>
    </contour>
    <contour>
      <point x="516" y="583" type="curve" smooth="yes"/>
      <point x="745" y="583"/>
      <point x="901" y="734"/>
      <point x="901" y="1031" type="curve" smooth="yes"/>
      <point x="901" y="1335"/>
      <point x="734" y="1474"/>
      <point x="517" y="1474" type="curve" smooth="yes"/>
      <point x="297" y="1474"/>
      <point x="131" y="1334"/>
      <point x="131" y="1028" type="curve" smooth="yes"/>
      <point x="131" y="733"/>
      <point x="287" y="583"/>
    </contour>
  </outline>
</glyph>
<glyph name="onequarter" format="1">
  <advance width="1403"/>
  <unicode hex="00BC"/>
  <outline>
    <contour>
      <point x="1125" y="0" type="line"/>
      <point x="1259" y="0" type="line"/>
      <point x="1259" y="140" type="line"/>
      <point x="1363" y="140" type="line"/>
      <point x="1363" y="238" type="line"/>
      <point x="1259" y="238" type="line"/>
      <point x="1259" y="693" type="line"/>
      <point x="1086" y="693" type="line"/>
      <point x="778" y="220" type="line"/>
      <point x="778" y="140" type="line"/>
      <point x="1125" y="140" type="line"/>
    </contour>
    <contour>
      <point x="219" y="769" type="line"/>
      <point x="354" y="769" type="line"/>
      <point x="354" y="1464" type="line"/>
      <point x="231" y="1464" type="line"/>
      <point x="79" y="1394" type="line"/>
      <point x="104" y="1287" type="line"/>
      <point x="219" y="1345" type="line"/>
    </contour>
    <contour>
      <point x="151" y="-14" type="line"/>
      <point x="1386" y="1415" type="line"/>
      <point x="1294" y="1494" type="line"/>
      <point x="58" y="65" type="line"/>
    </contour>
    <contour>
      <point x="915" y="238" type="line"/>
      <point x="1125" y="568" type="line"/>
      <point x="1125" y="238" type="line"/>
    </contour>
  </outline>
</glyph>
<glyph name="onehalf" format="1">
  <advance width="1473"/>
  <unicode hex="00BD"/>
  <outline>
    <contour>
      <point x="947" y="0" type="line"/>
      <point x="1429" y="0" type="line"/>
      <point x="1429" y="95" type="line"/>
      <point x="1116" y="95" type="line"/>
      <point x="1311" y="265"/>
      <point x="1445" y="341"/>
      <point x="1428" y="503" type="curve" smooth="yes"/>
      <point x="1414" y="646"/>
      <point x="1301" y="712"/>
      <point x="1184" y="712" type="curve" smooth="yes"/>
      <point x="1078" y="712"/>
      <point x="969" y="658"/>
      <point x="926" y="537" type="curve"/>
      <point x="1034" y="483" type="line"/>
      <point x="1052" y="557"/>
      <point x="1109" y="601"/>
      <point x="1180" y="601" type="curve" smooth="yes"/>
      <point x="1246" y="601"/>
      <point x="1294" y="560"/>
      <point x="1299" y="486" type="curve" smooth="yes"/>
      <point x="1308" y="370"/>
      <point x="1174" y="294"/>
      <point x="947" y="98" type="curve"/>
    </contour>
    <contour>
      <point x="255" y="769" type="line"/>
      <point x="390" y="769" type="line"/>
      <point x="390" y="1464" type="line"/>
      <point x="267" y="1464" type="line"/>
      <point x="115" y="1394" type="line"/>
      <point x="140" y="1287" type="line"/>
      <point x="255" y="1345" type="line"/>
    </contour>
    <contour>
      <point x="175" y="-14" type="line"/>
      <point x="1410" y="1415" type="line"/>
      <point x="1318" y="1494" type="line"/>
      <point x="82" y="65" type="line"/>
    </contour>
  </outline>
</glyph>
<glyph name="threequarters" format="1">
  <advance width="1505"/>
  <unicode hex="00BE"/>
  <outline>
    <contour>
      <point x="364" y="744" type="curve"/>
      <point x="526" y="743"/>
      <point x="613" y="835"/>
      <point x="616" y="951" type="curve" smooth="yes"/>
      <point x="617" y="1003"/>
      <point x="604" y="1104"/>
      <point x="466" y="1144" type="curve"/>
      <point x="554" y="1172"/>
      <point x="586" y="1240"/>
      <point x="586" y="1306" type="curve" smooth="yes"/>
      <point x="586" y="1402"/>
      <point x="495" y="1481"/>
      <point x="353" y="1481" type="curve" smooth="yes"/>
      <point x="271" y="1481"/>
      <point x="167" y="1440"/>
      <point x="137" y="1358" type="curve"/>
      <point x="222" y="1297" type="line"/>
      <point x="248" y="1349"/>
      <point x="300" y="1379"/>
      <point x="354" y="1379" type="curve" smooth="yes"/>
      <point x="420" y="1379"/>
      <point x="462" y="1347"/>
      <point x="463" y="1297" type="curve" smooth="yes"/>
      <point x="464" y="1235"/>
      <point x="433" y="1192"/>
      <point x="311" y="1190" type="curve"/>
      <point x="311" y="1086" type="line"/>
      <point x="447" y="1086"/>
      <point x="488" y="1034"/>
      <point x="488" y="955" type="curve" smooth="yes"/>
      <point x="488" y="900"/>
      <point x="441" y="850"/>
      <point x="371" y="850" type="curve" smooth="yes"/>
      <point x="307" y="850"/>
      <point x="246" y="873"/>
      <point x="218" y="954" type="curve"/>
      <point x="123" y="910" type="line"/>
      <point x="152" y="791"/>
      <point x="270" y="745"/>
    </contour>
    <contour>
      <point x="1229" y="0" type="line"/>
      <point x="1365" y="0" type="line"/>
      <point x="1365" y="140" type="line"/>
      <point x="1467" y="140" type="line"/>
      <point x="1467" y="238" type="line"/>
      <point x="1365" y="238" type="line"/>
      <point x="1365" y="693" type="line"/>
      <point x="1190" y="693" type="line"/>
      <point x="882" y="220" type="line"/>
      <point x="882" y="140" type="line"/>
      <point x="1229" y="140" type="line"/>
    </contour>
    <contour>
      <point x="278" y="-14" type="line"/>
      <point x="1513" y="1415" type="line"/>
      <point x="1421" y="1494" type="line"/>
      <point x="185" y="65" type="line"/>
    </contour>
    <contour>
      <point x="1019" y="238" type="line"/>
      <point x="1229" y="568" type="line"/>
      <point x="1229" y="238" type="line"/>
    </contour>
  </outline>
</glyph>
<glyph name="Eth" format="1">
  <advance width="1444"/>
  <unicode hex="00D0"/>
  <outline>
    <contour>
      <point x="0" y="694" type="line"/>
      <point x="558" y="694" type="line"/>
      <point x="558" y="796" type="line"/>
      <point x="0" y="796" type="line"/>
    </contour>
    <component base="D"/>
  </outline>
</glyph>
<glyph name="Oslash" format="1">
  <advance width="1497"/>
  <unicode hex="00D8"/>
  <outline>
    <contour>
      <point x="337" y="-208" type="line"/>
      <point x="1227" y="1610" type="line"/>
      <point x="1126" y="1663" type="line"/>
      <point x="235" y="-155" type="line"/>
    </contour>
    <component base="O"/>
  </outline>
</glyph>
<glyph name="Thorn" format="1">
  <advance width="1261"/>
  <unicode hex="00DE"/>
  <outline>
    <contour>
      <point x="140" y="0" type="line"/>
      <point x="328" y="0" type="line"/>
      <point x="328" y="335" type="line"/>
      <point x="508" y="335" type="line" smooth="yes"/>
      <point x="1022" y="335"/>
      <point x="1211" y="445"/>
      <point x="1211" y="776" type="curve" smooth="yes"/>
      <point x="1211" y="1065"/>
      <point x="1039" y="1198"/>
      <point x="567" y="1198" type="curve" smooth="yes"/>
      <point x="328" y="1198" type="line"/>
      <point x="328" y="1464" type="line"/>
      <point x="140" y="1464" type="line"/>
    </contour>
    <contour>
      <point x="328" y="471" type="line"/>
      <point x="328" y="1061" type="line"/>
      <point x="544" y="1061" type="line" smooth="yes"/>
      <point x="896" y="1061"/>
      <point x="1033" y="997"/>
      <point x="1033" y="771" type="curve" smooth="yes"/>
      <point x="1033" y="532"/>
      <point x="896" y="472"/>
      <point x="564" y="471" type="curve" smooth="yes"/>
    </contour>
  </outline>
</glyph>
<glyph name="germandbls" format="1">
  <advance width="1199"/>
  <unicode hex="00DF"/>
  <outline>
    <contour>
      <point x="119" y="0" type="line"/>
      <point x="295" y="0" type="line"/>
      <point x="295" y="1138" type="line" smooth="yes"/>
      <point x="295" y="1285"/>
      <point x="420" y="1368"/>
      <point x="565" y="1368" type="curve" smooth="yes"/>
      <point x="716" y="1367"/>
      <point x="785" y="1306"/>
      <point x="785" y="1209" type="curve" smooth="yes"/>
      <point x="785" y="996"/>
      <point x="439" y="1017"/>
      <point x="437" y="816" type="curve" smooth="yes"/>
      <point x="434" y="579"/>
      <point x="953" y="564"/>
      <point x="946" y="334" type="curve" smooth="yes"/>
      <point x="942" y="203"/>
      <point x="831" y="141"/>
      <point x="441" y="141" type="curve"/>
      <point x="441" y="0" type="line"/>
      <point x="481" y="0" type="line" smooth="yes"/>
      <point x="1030" y="0"/>
      <point x="1121" y="113"/>
      <point x="1123" y="336" type="curve" smooth="yes"/>
      <point x="1124" y="654"/>
      <point x="608" y="701"/>
      <point x="611" y="823" type="curve" smooth="yes"/>
      <point x="612" y="886"/>
      <point x="950" y="940"/>
      <point x="948" y="1203" type="curve" smooth="yes"/>
      <point x="947" y="1364"/>
      <point x="831" y="1490"/>
      <point x="568" y="1492" type="curve" smooth="yes"/>
      <point x="342" y="1494"/>
      <point x="119" y="1373"/>
      <point x="119" y="1151" type="curve" smooth="yes"/>
    </contour>
  </outline>
</glyph>
<glyph name="ae" format="1">
  <advance width="1667"/>
  <unicode hex="00E6"/>
  <outline>
    <contour>
      <point x="883" y="1023" type="move" name="top"/>
    </contour>
    <contour>
      <point x="429" y="-24" type="curve" smooth="yes"/>
      <point x="617" y="-24"/>
      <point x="757" y="37"/>
      <point x="829" y="203" type="curve"/>
      <point x="888" y="40"/>
      <point x="1044" y="-24"/>
      <point x="1195" y="-24" type="curve" smooth="yes"/>
      <point x="1375" y="-23"/>
      <point x="1515" y="83"/>
      <point x="1570" y="234" type="curve"/>
      <point x="1453" y="283" type="line"/>
      <point x="1426" y="218"/>
      <point x="1358" y="100"/>
      <point x="1195" y="100" type="curve" smooth="yes"/>
      <point x="995" y="101"/>
      <point x="920" y="249"/>
      <point x="913" y="487" type="curve"/>
      <point x="1588" y="499" type="line"/>
      <point x="1590" y="516"/>
      <point x="1591" y="563"/>
      <point x="1591" y="572" type="curve" smooth="yes"/>
      <point x="1591" y="844"/>
      <point x="1477" y="1045"/>
      <point x="1192" y="1045" type="curve" smooth="yes"/>
      <point x="1049" y="1045"/>
      <point x="914" y="978"/>
      <point x="848" y="831" type="curve"/>
      <point x="801" y="991"/>
      <point x="671" y="1045"/>
      <point x="518" y="1045" type="curve" smooth="yes"/>
      <point x="366" y="1045"/>
      <point x="245" y="1008"/>
      <point x="131" y="929" type="curve"/>
      <point x="197" y="824" type="line"/>
      <point x="284" y="880"/>
      <point x="386" y="930"/>
      <point x="531" y="921" type="curve" smooth="yes"/>
      <point x="709" y="910"/>
      <point x="741" y="819"/>
      <point x="744" y="594" type="curve"/>
      <point x="578" y="592" type="line" smooth="yes"/>
      <point x="254" y="586"/>
      <point x="67" y="502"/>
      <point x="80" y="249" type="curve" smooth="yes"/>
      <point x="90" y="56"/>
      <point x="246" y="-24"/>
    </contour>
    <contour>
      <point x="442" y="100" type="curve" smooth="yes"/>
      <point x="327" y="102"/>
      <point x="258" y="153"/>
      <point x="251" y="254" type="curve" smooth="yes"/>
      <point x="238" y="421"/>
      <point x="371" y="467"/>
      <point x="590" y="472" type="curve" smooth="yes"/>
      <point x="744" y="475" type="line"/>
      <point x="744" y="396" type="line" smooth="yes"/>
      <point x="744" y="176"/>
      <point x="625" y="96"/>
    </contour>
    <contour>
      <point x="915" y="600" type="line"/>
      <point x="925" y="786"/>
      <point x="1021" y="922"/>
      <point x="1192" y="922" type="curve" smooth="yes"/>
      <point x="1363" y="922"/>
      <point x="1430" y="814"/>
      <point x="1441" y="610" type="curve"/>
    </contour>
  </outline>
</glyph>
<glyph name="eth" format="1">
  <advance width="1053"/>
  <unicode hex="00F0"/>
  <outline>
    <contour>
      <point x="518" y="-24" type="curve" smooth="yes"/>
      <point x="840" y="-25"/>
      <point x="972" y="213"/>
      <point x="972" y="529" type="curve" smooth="yes"/>
      <point x="972" y="775"/>
      <point x="914" y="1038"/>
      <point x="745" y="1216" type="curve"/>
      <point x="927" y="1335" type="line"/>
      <point x="864" y="1424" type="line"/>
      <point x="660" y="1291" type="line"/>
      <point x="541" y="1378"/>
      <point x="380" y="1432"/>
      <point x="169" y="1432" type="curve"/>
      <point x="169" y="1320" type="line"/>
      <point x="327" y="1320"/>
      <point x="448" y="1278"/>
      <point x="541" y="1213" type="curve"/>
      <point x="378" y="1107" type="line"/>
      <point x="441" y="1018" type="line"/>
      <point x="627" y="1140" type="line"/>
      <point x="731" y="1032"/>
      <point x="781" y="891"/>
      <point x="796" y="773" type="curve"/>
      <point x="722" y="866"/>
      <point x="615" y="909"/>
      <point x="503" y="908" type="curve" smooth="yes"/>
      <point x="289" y="907"/>
      <point x="82" y="746"/>
      <point x="82" y="454" type="curve" smooth="yes"/>
      <point x="82" y="208"/>
      <point x="226" y="-23"/>
    </contour>
    <contour>
      <point x="522" y="106" type="curve" smooth="yes"/>
      <point x="370" y="109"/>
      <point x="252" y="231"/>
      <point x="252" y="442" type="curve" smooth="yes"/>
      <point x="252" y="652"/>
      <point x="372" y="776"/>
      <point x="523" y="776" type="curve" smooth="yes"/>
      <point x="625" y="776"/>
      <point x="710" y="728"/>
      <point x="802" y="628" type="curve"/>
      <point x="808" y="602"/>
      <point x="809" y="535"/>
      <point x="809" y="511" type="curve" smooth="yes"/>
      <point x="809" y="280"/>
      <point x="726" y="102"/>
    </contour>
  </outline>
</glyph>
<glyph name="oslash" format="1">
  <advance width="1104"/>
  <unicode hex="00F8"/>
  <outline>
    <contour>
      <point x="269" y="-198" type="line"/>
      <point x="920" y="1177" type="line"/>
      <point x="834" y="1222" type="line"/>
      <point x="181" y="-153" type="line"/>
    </contour>
    <component base="o"/>
  </outline>
</glyph>
<glyph name="thorn" format="1">
  <advance width="1058"/>
  <unicode hex="00FE"/>
  <outline>
    <contour>
      <point x="111" y="-394" type="line"/>
      <point x="281" y="-376" type="line"/>
      <point x="281" y="142" type="line"/>
      <point x="337" y="45"/>
      <point x="429" y="-24"/>
      <point x="580" y="-24" type="curve" smooth="yes"/>
      <point x="831" y="-24"/>
      <point x="986" y="217"/>
      <point x="986" y="520" type="curve" smooth="yes"/>
      <point x="986" y="824"/>
      <point x="855" y="1045"/>
      <point x="576" y="1045" type="curve" smooth="yes"/>
      <point x="434" y="1045"/>
      <point x="335" y="979"/>
      <point x="280" y="873" type="curve"/>
      <point x="280" y="1464" type="line"/>
      <point x="111" y="1464" type="line"/>
    </contour>
    <contour>
      <point x="564" y="98" type="curve" smooth="yes"/>
      <point x="373" y="98"/>
      <point x="283" y="268"/>
      <point x="281" y="519" type="curve" smooth="yes"/>
      <point x="280" y="808"/>
      <point x="408" y="924"/>
      <point x="557" y="923" type="curve" smooth="yes"/>
      <point x="701" y="922"/>
      <point x="811" y="798"/>
      <point x="811" y="521" type="curve" smooth="yes"/>
      <point x="811" y="263"/>
      <point x="729" y="98"/>
    </contour>
  </outline>
</glyph>
<glyph name="dcroat" format="1">
  <advance width="1137"/>
  <unicode hex="0111"/>
  <outline>
    <contour>
      <point x="580" y="1191" type="line"/>
      <point x="1112" y="1191" type="line"/>
      <point x="1112" y="1294" type="line"/>
      <point x="580" y="1294" type="line"/>
    </contour>
    <component base="d"/>
  </outline>
</glyph>
<glyph name="hbar" format="1">
  <advance width="1117"/>
  <unicode hex="0127"/>
  <outline>
    <contour>
      <point x="-5" y="1191" type="line"/>
      <point x="527" y="1191" type="line"/>
      <point x="527" y="1294" type="line"/>
      <point x="-5" y="1294" type="line"/>
    </contour>
    <component base="h"/>
  </outline>
</glyph>
<glyph name="kgreenlandic" format="1">
  <advance width="1010"/>
  <unicode hex="0138"/>
  <outline>
    <contour>
      <point x="845" y="0" type="line"/>
      <point x="1037" y="0" type="line"/>
      <point x="607" y="597" type="line"/>
      <point x="980" y="1023" type="line"/>
      <point x="785" y="1023" type="line"/>
      <point x="205" y="376" type="line"/>
      <point x="205" y="207" type="line"/>
      <point x="492" y="504" type="line"/>
    </contour>
    <component base="lc_main_stem"/>
  </outline>
</glyph>
<glyph name="Eng" format="1">
  <advance width="1498"/>
  <unicode hex="014A"/>
  <outline>
    <contour>
      <point x="902" y="-519" type="line"/>
      <point x="1185" y="-517"/>
      <point x="1352" y="-371"/>
      <point x="1352" y="-57" type="curve" smooth="yes"/>
      <point x="1352" y="655" type="line"/>
      <point x="1199" y="655" type="line"/>
      <point x="1199" y="-58" type="line"/>
      <point x="1199" y="-277"/>
      <point x="1106" y="-390"/>
      <point x="903" y="-391" type="curve"/>
    </contour>
    <component base="N"/>
  </outline>
</glyph>
<glyph name="OE" format="1">
  <advance width="2171"/>
  <unicode hex="0152"/>
  <outline>
    <contour>
      <point x="712" y="-25" type="curve" smooth="yes"/>
      <point x="965" y="-25"/>
      <point x="1107" y="71"/>
      <point x="1164" y="224" type="curve"/>
      <point x="1164" y="0" type="line"/>
      <point x="2121" y="0" type="line"/>
      <point x="2121" y="134" type="line"/>
      <point x="1340" y="134" type="line"/>
      <point x="1340" y="711" type="line"/>
      <point x="2004" y="711" type="line"/>
      <point x="2004" y="848" type="line"/>
      <point x="1340" y="848" type="line"/>
      <point x="1340" y="1330" type="line"/>
      <point x="2110" y="1330" type="line"/>
      <point x="2110" y="1464" type="line"/>
      <point x="1163" y="1464" type="line"/>
      <point x="1164" y="1256" type="line"/>
      <point x="1093" y="1406"/>
      <point x="952" y="1491"/>
      <point x="715" y="1491" type="curve" smooth="yes"/>
      <point x="336" y="1491"/>
      <point x="107" y="1282"/>
      <point x="107" y="740" type="curve" smooth="yes"/>
      <point x="107" y="186"/>
      <point x="329" y="-25"/>
    </contour>
    <contour>
      <point x="713" y="117" type="curve" smooth="yes"/>
      <point x="392" y="120"/>
      <point x="291" y="316"/>
      <point x="291" y="741" type="curve" smooth="yes"/>
      <point x="291" y="1130"/>
      <point x="388" y="1345"/>
      <point x="714" y="1350" type="curve" smooth="yes"/>
      <point x="1061" y="1356"/>
      <point x="1164" y="1205"/>
      <point x="1164" y="716" type="curve" smooth="yes"/>
      <point x="1164" y="274"/>
      <point x="1044" y="113"/>
    </contour>
  </outline>
</glyph>
<glyph name="oe" format="1">
  <advance width="2116"/>
  <unicode hex="0153"/>
  <outline>
    <contour>
      <point x="1631" y="1023" type="move" name="top"/>
    </contour>
    <contour>
      <point x="1732" y="0" type="move" name="ogonek"/>
    </contour>
    <contour>
      <point x="556" y="-24" type="curve" smooth="yes"/>
      <point x="722" y="-24"/>
      <point x="852" y="60"/>
      <point x="916" y="208" type="curve"/>
      <point x="980" y="70"/>
      <point x="1109" y="-24"/>
      <point x="1290" y="-24" type="curve" smooth="yes"/>
      <point x="1465" y="-23"/>
      <point x="1623" y="78"/>
      <point x="1670" y="256" type="curve"/>
      <point x="1542" y="285" type="line"/>
      <point x="1507" y="181"/>
      <point x="1426" y="98"/>
      <point x="1287" y="98" type="curve" smooth="yes"/>
      <point x="1086" y="98"/>
      <point x="1005" y="283"/>
      <point x="1004" y="487" type="curve"/>
      <point x="1688" y="487" type="line"/>
      <point x="1690" y="504"/>
      <point x="1691" y="555"/>
      <point x="1691" y="564" type="curve" smooth="yes"/>
      <point x="1691" y="837"/>
      <point x="1565" y="1045"/>
      <point x="1280" y="1045" type="curve" smooth="yes"/>
      <point x="1113" y="1045"/>
      <point x="979" y="948"/>
      <point x="915" y="808" type="curve"/>
      <point x="855" y="955"/>
      <point x="721" y="1045"/>
      <point x="556" y="1045" type="curve" smooth="yes"/>
      <point x="282" y="1045"/>
      <point x="106" y="862"/>
      <point x="106" y="511" type="curve" smooth="yes"/>
      <point x="106" y="159"/>
      <point x="282" y="-24"/>
    </contour>
    <contour>
      <point x="556" y="97" type="curve" smooth="yes"/>
      <point x="333" y="97"/>
      <point x="280" y="308"/>
      <point x="280" y="511" type="curve" smooth="yes"/>
      <point x="280" y="713"/>
      <point x="333" y="925"/>
      <point x="556" y="925" type="curve" smooth="yes"/>
      <point x="778" y="925"/>
      <point x="831" y="713"/>
      <point x="831" y="511" type="curve" smooth="yes"/>
      <point x="831" y="308"/>
      <point x="778" y="97"/>
    </contour>
    <contour>
      <point x="1004" y="599" type="line"/>
      <point x="1016" y="758"/>
      <point x="1094" y="924"/>
      <point x="1278" y="924" type="curve" smooth="yes"/>
      <point x="1460" y="924"/>
      <point x="1530" y="804"/>
      <point x="1532" y="599" type="curve"/>
    </contour>
  </outline>
</glyph>
<glyph name="florin" format="1">
  <advance width="1019"/>
  <unicode hex="0192"/>
  <outline>
    <contour>
      <point x="402" y="-169" type="line"/>
      <point x="630" y="807" type="line"/>
      <point x="843" y="807" type="line"/>
      <point x="860" y="893" type="line"/>
      <point x="648" y="893" type="line"/>
      <point x="733" y="1254" type="line" smooth="yes"/>
      <point x="756" y="1351"/>
      <point x="775" y="1451"/>
      <point x="865" y="1451" type="curve" smooth="yes"/>
      <point x="910" y="1451"/>
      <point x="935" y="1402"/>
      <point x="935" y="1300" type="curve"/>
      <point x="1084" y="1300" type="line"/>
      <point x="1084" y="1487"/>
      <point x="979" y="1535"/>
      <point x="858" y="1535" type="curve" smooth="yes"/>
      <point x="670" y="1535"/>
      <point x="591" y="1402"/>
      <point x="552" y="1241" type="curve" smooth="yes"/>
      <point x="469" y="893" type="line"/>
      <point x="307" y="893" type="line"/>
      <point x="290" y="807" type="line"/>
      <point x="455" y="807" type="line"/>
      <point x="226" y="-168" type="line"/>
    </contour>
  </outline>
</glyph>
<glyph name="apostrophemod" format="1">
  <advance width="600"/>
  <unicode hex="02BC"/>
  <outline>
    <contour>
      <point x="320" y="1023" type="move" name="_top"/>
    </contour>
    <contour>
      <point x="285" y="1174" type="line"/>
      <point x="427" y="1261"/>
      <point x="439" y="1389"/>
      <point x="442" y="1563" type="curve"/>
      <point x="442" y="1672" type="line"/>
      <point x="202" y="1672" type="line"/>
      <point x="202" y="1462" type="line"/>
      <point x="306" y="1449" type="line"/>
      <point x="304" y="1345"/>
      <point x="249" y="1272"/>
      <point x="221" y="1248" type="curve"/>
    </contour>
  </outline>
</glyph>
<glyph name="circumflex" format="1">
  <advance width="838"/>
  <unicode hex="02C6"/>
  <outline>
    <contour>
      <point x="429" y="1023" type="move" name="_top"/>
    </contour>
    <contour>
      <point x="135" y="1154" type="line"/>
      <point x="250" y="1154" type="line"/>
      <point x="411" y="1393" type="line"/>
      <point x="573" y="1154" type="line"/>
      <point x="688" y="1154" type="line"/>
      <point x="515" y="1474" type="line"/>
      <point x="308" y="1474" type="line"/>
    </contour>
  </outline>
</glyph>
<glyph name="dotaccent" format="1">
  <advance width="434"/>
  <unicode hex="02D9"/>
  <outline>
    <contour>
      <point x="221" y="1023" type="move" name="_top"/>
    </contour>
    <contour>
      <point x="130" y="1232" type="line"/>
      <point x="304" y="1232" type="line"/>
      <point x="304" y="1457" type="line"/>
      <point x="130" y="1457" type="line"/>
    </contour>
  </outline>
</glyph>
<glyph name="ring" format="1">
  <advance width="728"/>
  <unicode hex="02DA"/>
  <outline>
    <contour>
      <point x="358" y="1023" type="move" name="_top"/>
    </contour>
    <contour>
      <point x="363" y="1294" type="curve"/>
      <point x="277" y="1294"/>
      <point x="231" y="1362"/>
      <point x="231" y="1436" type="curve"/>
      <point x="231" y="1510"/>
      <point x="277" y="1579"/>
      <point x="363" y="1579" type="curve"/>
      <point x="449" y="1579"/>
      <point x="495" y="1510"/>
      <point x="495" y="1436" type="curve"/>
      <point x="495" y="1362"/>
      <point x="449" y="1294"/>
    </contour>
    <contour>
      <point x="363" y="1193" type="curve"/>
      <point x="519" y="1193"/>
      <point x="612" y="1309"/>
      <point x="612" y="1436" type="curve"/>
      <point x="612" y="1564"/>
      <point x="519" y="1679"/>
      <point x="363" y="1679" type="curve"/>
      <point x="207" y="1679"/>
      <point x="114" y="1564"/>
      <point x="114" y="1436" type="curve"/>
      <point x="114" y="1309"/>
      <point x="207" y="1193"/>
    </contour>
  </outline>
</glyph>
<glyph name="ogonek" format="1">
  <advance width="462"/>
  <unicode hex="02DB"/>
  <outline>
    <contour>
      <point x="290" y="0" type="move" name="_ogonek"/>
    </contour>
    <contour>
      <point x="366" y="-368" type="curve"/>
      <point x="366" y="-272" type="line"/>
      <point x="283" y="-291"/>
      <point x="258" y="-260"/>
      <point x="258" y="-212" type="curve" smooth="yes"/>
      <point x="258" y="-154"/>
      <point x="297" y="-77"/>
      <point x="331" y="0" type="curve"/>
      <point x="248" y="0" type="line"/>
      <point x="184" y="-80"/>
      <point x="119" y="-161"/>
      <point x="117" y="-241" type="curve" smooth="yes"/>
      <point x="115" y="-321"/>
      <point x="191" y="-411"/>
    </contour>
  </outline>
</glyph>
<glyph name="Delta" format="1">
  <advance width="1332"/>
  <unicode hex="0394"/>
  <outline>
    <contour>
      <point x="86" y="0" type="line"/>
      <point x="1266" y="0" type="line"/>
      <point x="737" y="1482" type="line"/>
      <point x="611" y="1482" type="line"/>
    </contour>
    <contour>
      <point x="247" y="128" type="line"/>
      <point x="651" y="1307" type="line"/>
      <point x="1061" y="128" type="line"/>
    </contour>
  </outline>
</glyph>
<glyph name="quotedblright" format="1">
  <advance width="631"/>
  <unicode hex="201D"/>
  <outline>
    <contour>
      <point x="148" y="991" type="line"/>
      <point x="308" y="1104"/>
      <point x="285" y="1284"/>
      <point x="289" y="1464" type="curve"/>
      <point x="76" y="1464" type="line"/>
      <point x="76" y="1292" type="line" smooth="yes"/>
      <point x="76" y="1291"/>
      <point x="166" y="1273"/>
      <point x="166" y="1274" type="curve"/>
      <point x="163" y="1154"/>
      <point x="112" y="1077"/>
      <point x="86" y="1054" type="curve"/>
    </contour>
    <contour>
      <point x="453" y="991" type="line"/>
      <point x="612" y="1103"/>
      <point x="602" y="1285"/>
      <point x="607" y="1464" type="curve"/>
      <point x="395" y="1464" type="line"/>
      <point x="395" y="1292" type="line"/>
      <point x="476" y="1273" type="line"/>
      <point x="473" y="1152"/>
      <point x="421" y="1075"/>
      <point x="396" y="1054" type="curve"/>
    </contour>
  </outline>
</glyph>
<glyph name="foursuperior" format="1">
  <advance width="1363"/>
  <unicode hex="2074"/>
  <outline>
    <contour>
      <point x="639" y="891" type="line"/>
      <point x="639" y="1209" type="line"/>
      <point x="699" y="1465" type="line"/>
      <point x="587" y="1181" type="line"/>
      <point x="587" y="886" type="line"/>
      <point x="860" y="886" type="line"/>
      <point x="860" y="751" type="line"/>
      <point x="867" y="751" type="line"/>
      <point x="867" y="750" type="line"/>
      <point x="872" y="750" type="line"/>
      <point x="872" y="891" type="line"/>
    </contour>
    <contour>
      <point x="601" y="935" type="line"/>
      <point x="743" y="1361" type="line"/>
      <point x="625" y="935" type="line"/>
    </contour>
  </outline>
</glyph>
<glyph name="uni2113" format="1">
  <advance width="891"/>
  <unicode hex="2113"/>
  <outline>
    <contour>
      <point x="435" y="866" type="line"/>
      <point x="435" y="280" type="line" smooth="yes"/>
      <point x="435" y="140"/>
      <point x="488" y="110"/>
      <point x="562" y="110" type="curve" smooth="yes"/>
      <point x="597" y="110"/>
      <point x="650" y="123"/>
      <point x="698" y="143" type="curve"/>
      <point x="727" y="32" type="line"/>
      <point x="662" y="1"/>
      <point x="592" y="-16"/>
      <point x="527" y="-16" type="curve" smooth="yes"/>
      <point x="366" y="-16"/>
      <point x="263" y="61"/>
      <point x="265" y="298" type="curve" smooth="yes"/>
      <point x="265" y="751" type="line"/>
      <point x="118" y="634" type="line"/>
      <point x="55" y="725" type="line"/>
      <point x="265" y="895" type="line"/>
      <point x="265" y="1235" type="line" smooth="yes"/>
      <point x="265" y="1458"/>
      <point x="385" y="1559"/>
      <point x="545" y="1559" type="curve" smooth="yes"/>
      <point x="689" y="1559"/>
      <point x="789" y="1470"/>
      <point x="789" y="1338" type="curve" smooth="yes"/>
      <point x="789" y="1227"/>
      <point x="721" y="1095"/>
      <point x="571" y="974" type="curve" smooth="yes"/>
    </contour>
    <contour>
      <point x="521" y="1128" type="curve"/>
      <point x="521" y="1153"/>
      <point x="541" y="1198"/>
      <point x="520" y="1198" type="curve" smooth="yes"/>
      <point x="561" y="1252"/>
      <point x="564" y="1301"/>
      <point x="564" y="1288" type="curve" smooth="yes"/>
      <point x="564" y="1325"/>
      <point x="542" y="1262"/>
      <point x="510" y="1262" type="curve" smooth="yes"/>
      <point x="468" y="1262"/>
      <point x="458" y="1252"/>
      <point x="458" y="1173" type="curve" smooth="yes"/>
      <point x="504" y="1210"/>
      <point x="521" y="1102"/>
    </contour>
  </outline>
</glyph>
<glyph name="trademark" format="1">
  <advance width="1847"/>
  <unicode hex="2122"/>
  <outline>
    <contour>
      <point x="928" y="615" type="line"/>
      <point x="1054" y="615" type="line"/>
      <point x="1054" y="1241" type="line"/>
      <point x="1274" y="731" type="line"/>
      <point x="1382" y="731" type="line"/>
      <point x="1607" y="1238" type="line"/>
      <point x="1607" y="615" type="line"/>
      <point x="1728" y="615" type="line"/>
      <point x="1728" y="1463" type="line"/>
      <point x="1579" y="1463" type="line"/>
      <point x="1332" y="905" type="line"/>
      <point x="1087" y="1464" type="line"/>
      <point x="928" y="1464" type="line"/>
    </contour>
    <contour>
      <point x="371" y="615" type="line"/>
      <point x="505" y="615" type="line"/>
      <point x="505" y="1365" type="line"/>
      <point x="757" y="1365" type="line"/>
      <point x="757" y="1464" type="line"/>
      <point x="116" y="1464" type="line"/>
      <point x="116" y="1365" type="line"/>
      <point x="371" y="1365" type="line"/>
    </contour>
  </outline>
</glyph>
<glyph name="partialdiff" format="1">
  <advance width="1162"/>
  <unicode hex="2202"/>
  <outline>
    <contour>
      <point x="518" y="-24" type="curve" smooth="yes"/>
      <point x="839" y="-24"/>
      <point x="994" y="214"/>
      <point x="1028" y="529" type="curve" smooth="yes"/>
      <point x="1034" y="580"/>
      <point x="1037" y="632"/>
      <point x="1037" y="683" type="curve" smooth="yes"/>
      <point x="1037" y="1063"/>
      <point x="875" y="1432"/>
      <point x="320" y="1432" type="curve"/>
      <point x="308" y="1320" type="line"/>
      <point x="739" y="1320"/>
      <point x="873" y="1007"/>
      <point x="878" y="773" type="curve"/>
      <point x="814" y="865"/>
      <point x="712" y="908"/>
      <point x="601" y="908" type="curve" smooth="yes"/>
      <point x="386" y="908"/>
      <point x="160" y="747"/>
      <point x="130" y="454" type="curve" smooth="yes"/>
      <point x="128" y="432"/>
      <point x="127" y="411"/>
      <point x="127" y="389" type="curve" smooth="yes"/>
      <point x="127" y="168"/>
      <point x="252" y="-24"/>
    </contour>
    <contour>
      <point x="540" y="106" type="curve" smooth="yes"/>
      <point x="399" y="106"/>
      <point x="296" y="208"/>
      <point x="296" y="388" type="curve" smooth="yes"/>
      <point x="296" y="406"/>
      <point x="297" y="423"/>
      <point x="299" y="442" type="curve" smooth="yes"/>
      <point x="321" y="652"/>
      <point x="454" y="776"/>
      <point x="605" y="776" type="curve" smooth="yes"/>
      <point x="707" y="776"/>
      <point x="787" y="728"/>
      <point x="869" y="628" type="curve"/>
      <point x="870" y="622"/>
      <point x="870" y="615"/>
      <point x="870" y="607" type="curve" smooth="yes"/>
      <point x="870" y="576"/>
      <point x="865" y="530"/>
      <point x="864" y="511" type="curve" smooth="yes"/>
      <point x="840" y="283"/>
      <point x="739" y="106"/>
    </contour>
  </outline>
</glyph>
<glyph name="uni2206" format="1">
  <advance width="1284"/>
  <unicode hex="2206"/>
  <outline>
    <contour>
      <point x="65" y="0" type="line"/>
      <point x="1201" y="0" type="line"/>
      <point x="1201" y="85" type="line"/>
      <point x="723" y="1537" type="line"/>
      <point x="559" y="1537" type="line"/>
      <point x="65" y="85" type="line"/>
    </contour>
    <contour>
      <point x="224" y="156" type="line"/>
      <point x="592" y="1297" type="line"/>
      <point x="624" y="1415" type="line"/>
      <point x="658" y="1297" type="line"/>
      <point x="1018" y="156" type="line"/>
    </contour>
  </outline>
</glyph>
<glyph name="summation" format="1">
  <advance width="1264"/>
  <unicode hex="2211"/>
  <outline>
    <contour>
      <point x="161" y="-18" type="line"/>
      <point x="1142" y="-18" type="line" smooth="yes"/>
      <point x="1142" y="117" type="line" smooth="yes"/>
      <point x="332" y="117" type="line" smooth="yes"/>
      <point x="881" y="680" type="line" smooth="yes"/>
      <point x="881" y="789" type="line" smooth="yes"/>
      <point x="335" y="1362" type="line" smooth="yes"/>
      <point x="1142" y="1362" type="line" smooth="yes"/>
      <point x="1142" y="1491" type="line" smooth="yes"/>
      <point x="161" y="1491" type="line" smooth="yes"/>
      <point x="161" y="1355" type="line" smooth="yes"/>
      <point x="728" y="737" type="line" smooth="yes"/>
      <point x="161" y="135" type="line" smooth="yes"/>
    </contour>
  </outline>
</glyph>
<glyph name="approxequal" format="1">
  <advance width="1005"/>
  <unicode hex="2248"/>
  <outline>
    <contour>
      <point x="837" y="419" type="curve" smooth="yes"/>
      <point x="944" y="414"/>
      <point x="993" y="470"/>
      <point x="1002" y="651" type="curve"/>
      <point x="883" y="651" type="line"/>
      <point x="878" y="578"/>
      <point x="846" y="553"/>
      <point x="793" y="553" type="curve" smooth="yes"/>
      <point x="686" y="553"/>
      <point x="492" y="656"/>
      <point x="267" y="665" type="curve" smooth="yes"/>
      <point x="175" y="668"/>
      <point x="97" y="649"/>
      <point x="82" y="426" type="curve"/>
      <point x="200" y="426" type="line"/>
      <point x="199" y="505"/>
      <point x="233" y="531"/>
      <point x="292" y="531" type="curve" smooth="yes"/>
      <point x="407" y="531"/>
      <point x="616" y="429"/>
    </contour>
    <contour>
      <point x="788" y="725" type="curve" smooth="yes"/>
      <point x="895" y="721"/>
      <point x="944" y="777"/>
      <point x="953" y="958" type="curve"/>
      <point x="834" y="958" type="line"/>
      <point x="829" y="884"/>
      <point x="797" y="860"/>
      <point x="744" y="860" type="curve" smooth="yes"/>
      <point x="637" y="860"/>
      <point x="443" y="963"/>
      <point x="218" y="972" type="curve" smooth="yes"/>
      <point x="126" y="975"/>
      <point x="48" y="956"/>
      <point x="33" y="732" type="curve"/>
      <point x="151" y="732" type="line"/>
      <point x="150" y="812"/>
      <point x="184" y="838"/>
      <point x="243" y="838" type="curve" smooth="yes"/>
      <point x="358" y="838"/>
      <point x="567" y="736"/>
    </contour>
  </outline>
</glyph>
<glyph name="lc_ascender_stem_2" format="1">
  <advance width="1078"/>
  <outline>
    <contour>
      <point x="112" y="0" type="line"/>
      <point x="243" y="0" type="line"/>
      <point x="282" y="749" type="line"/>
      <point x="282" y="1474" type="line"/>
      <point x="112" y="1474" type="line"/>
    </contour>
  </outline>
</glyph>
<glyph name="lc_curved_stem" format="1">
  <advance width="1086"/>
  <outline>
    <contour>
      <point x="664" y="1151" type="move" name="top"/>
    </contour>
    <contour>
      <point x="813" y="0" type="line"/>
      <point x="983" y="0" type="line"/>
      <point x="983" y="588" type="line" smooth="yes"/>
      <point x="983" y="794"/>
      <point x="955" y="1044"/>
      <point x="632" y="1044" type="curve" smooth="yes"/>
      <point x="380" y="1044"/>
      <point x="246" y="885"/>
      <point x="212" y="616" type="curve"/>
      <point x="291" y="496" type="line" smooth="yes"/>
      <point x="291" y="726"/>
      <point x="359" y="924"/>
      <point x="602" y="924" type="curve" smooth="yes"/>
      <point x="767" y="924"/>
      <point x="813" y="808"/>
      <point x="813" y="603" type="curve" smooth="yes"/>
    </contour>
  </outline>
</glyph>
<glyph name="lc_descender_stem_2" format="1">
  <advance width="1057"/>
  <outline>
    <contour>
      <point x="99" y="-350" type="line"/>
      <point x="269" y="-350" type="line"/>
      <point x="269" y="1023" type="line"/>
      <point x="121" y="1023" type="line"/>
      <point x="100" y="782" type="line"/>
    </contour>
  </outline>
</glyph>
<glyph name="middot" format="1">
  <advance width="600"/>
  <outline>
    <contour>
      <point x="205" y="536" type="line"/>
      <point x="407" y="536" type="line"/>
      <point x="407" y="761" type="line"/>
      <point x="205" y="761" type="line"/>
    </contour>
  </outline>
</glyph>
